<svg version="1.0" xmlns="http://www.w3.org/2000/svg" width="933.333" height="933.333" viewBox="0 0 700 700"><path d="M144 1c0 .5.5 1 1.1 1 .5 0 .7-.5.4-1-.3-.6-.8-1-1.1-1-.2 0-.4.4-.4 1z"/><path d="M146.5 1.7c-.5 1.5-3.5 1.7-3.5.3 0-.5-1.8-.9-3.9-.7-2.2.1-3.7.5-3.4 1 .2.4.9.5 1.4.2 1.5-1 1 .2-.8 1.6-.9.8-1.4.9-1 .3.8-1.4-1-2.2-4.3-1.9-4.1.4-4.2.4-3.4 1.7.5.9.2.9-.9-.1-1.3-1-2-1.1-3.1-.2-.7.6-2 .9-2.7.6-.8-.3-2 .4-2.7 1.5-1.3 2.2-.3 2.7 1.6.8.8-.8 1.2-.8 1.2-.1 0 1.7-5.9 3.8-7.2 2.5-.8-.8-.4-1 1.3-.6 1.3.2 1.8.1 1.1-.2-1-.5-.9-1 .5-2.1 1.7-1.4 1.7-1.4-.2-.8-1.1.4-2.9.9-4 1.2-4.7 1.1-4.7 1.2-2.5 4.3 1.6 2.2 1.7 2.8.6 2.4-.9-.3-1.6-1.2-1.6-1.9 0-2.8-2.5-3.5-6.8-1.8-2.3.9-4.2 2-4.2 2.5s-.4.7-.9.3c-1.5-.9-5.8 1.5-7.1 4.1-.7 1.3-1.6 2.2-1.9 2-1-.5-4 3.2-3.3 3.9.4.4-.3.2-1.5-.6-1.2-.7-1.9-1.7-1.6-2.2.3-.5.9-.4 1.2.2.5.7 1.9.1 4.1-1.9 1.8-1.6 2.8-3 2.2-3-.7 0-2 .8-3 1.8s-2.2 1.7-2.8 1.5c-.5-.1-1.8.4-2.9 1.3-2 1.5-1.5 2.4 2 3.8 1.5.5-.9 4.1-2.9 4.2-1.3.2-1.3.1-.1-.3.8-.2 1.2-.9.9-1.5-.5-.7-.2-.8.6-.3s1.1.3.9-.4c-.3-.7-.8-1.2-1.3-1.1-.4.1-1.3-.6-1.9-1.4-1.1-1.4-1.6-1.3-4.4.5C71 25.2 70 27 72.1 27c.7 0 1.8.8 2.5 1.7 1.1 1.5 1.3 1.6 1.4.2 0-.8-.5-2-1.2-2.7-.9-.9-.9-1.5.1-2.5 1.1-1 1.2-.9.7.1-.4.7-.2 1.9.4 2.7 1.4 1.6.6 5-.9 4-.6-.3-1.5.1-2.2.8-1.1 1.1-1.7.9-3.5-1.2l-2.1-2.5-4.4 3.5c-2.4 1.9-5.3 4.1-6.3 4.9-4.7 3.6-9.9 9.1-9.2 9.7.4.4 1.1.1 1.5-.6.5-.8 1.1-.9 1.5-.3.7 1.2-1.9 2.3-3.7 1.6-.7-.2-2.6.9-4.2 2.6-1.6 1.6-2.7 3.1-2.4 3.1 3.6 1 5.5.6 5.6-1.2.2-1.6-.1-1.8-2-.8l-2.2 1.2 2-2c1.1-1.1 2-2 2-1.9 0 0 .9 1.1 2 2.4 1.9 2.3 1.9 2.3-.1 1.6-1.6-.7-1.7-.6-.6.8s.8 1.6-3.2 1.3c-4.5-.2-7.9 1.6-6.1 3.3.4.4 1 .1 1.2-.6.3-.6.9-1.2 1.5-1.2s.5.6-.2 1.5-2.1 1.3-3.1 1c-1.3-.4-1.9-.1-1.9.9s.7 1.3 2.4 1c1.4-.2 2.8.1 3.1.6 1 1.5-1.3 3.9-3.5 3.7-1.1-.1-1.7-.3-1.5-.5.2-.3-.1-1.4-.6-2.5-1.1-1.9-1.2-1.8-3.2 1.4-1.2 1.9-2.9 4.2-3.9 5.3-.9 1-1.4 2.5-1.1 3.3.3.8 0 1.3-.7 1.1-.7-.2-2.2 1.5-3.4 3.8-1.1 2.3-2.7 4.8-3.4 5.7-.9 1-1 1.7-.2 2.2 1.5.9 3.2-.5 2.6-2.2-.3-.8-.2-1.2.2-.9.5.3.9 0 1-.7.2-2.4.8-4.7 1.5-5.3.3-.4.4.5.2 1.9-.4 2.2-.2 2.5 1.9 2.3 2.2-.3 2.3-.1 1.3 1.6-1 1.5-1.3 1.6-1.5.3-.2-.8-.8-1.3-1.3-1-.5.4-.5 1.4.2 2.6.6 1.2.8 2.3.5 2.7-.3.3-.6-.1-.6-.9 0-1.1-.2-1.1-1 .1-.7 1.1-1 1.1-1 .2 0-.7-.4-1.1-.9-.8-.4.3-.8 2-.8 3.8.1 1.9-.3 4.2-.8 5.3-.4 1.1-.9 2.6-1.1 3.4-.1.8-.8 1.7-1.4 2.1-.7.4-1.1 1-1.1 1.4.3 2.2-.1 2.7-1.5 2.2-1-.4-1.4-.2-1.1.6.2.7 1 1.2 1.7 1 1-.2 1.1 0 .2 1.1-.7.8-.9 1.6-.6 1.9.3.3-.2.5-1.2.5-.9-.1-1.9.5-2.1 1.3-.4 1.2-.3 1.2.5.1.7-.9 1.2-1 1.6-.2.6 1-.6 1.5-2.6 1.2-.9-.1-.5 2.4.7 5.2.4.9.2 2.3-.4 3.1-.6.7-.7 1.7-.3 2.1.4.5.2.5-.4.2-1.3-.7-2.7 1.7-1.6 2.7.3.4.7 1.3.8 2.2.2 1.3 0 1.3-1.3.2-1.4-1.1-1.5-1-.7.7 1.3 2.6 1 6.5-.6 7.5-1 .6-.9.9.1 1.4.8.3.3.3-1.1 0l-2.5-.5 2.5 1.5c1.4.9 1.9 1.5 1.1 1.6-1 0-1.1.3-.2 1.4.9 1 .9 1.6.1 2.1-.6.4-.9 1.4-.6 2.2.3.8.2 1.2-.3.9-.5-.3-1.2.1-1.5 1-.9 2.4-.7 2.8.7 1.6 1-.8 1.2-.2 1.2 2.9 0 2.1-.4 3.9-.9 3.9-.4 0-.3.7.4 1.6.8.8.9 1.4.4 1.3-2.3-.4-2.6.2-.8 1.6 1.2.9 1.4 1.4.6 1.5-.7 0-1 .5-.7 1.1 1.1 1.7 1.3 5.9.4 6.5-.5.3-.5 1.3.1 2.3.7 1.4.5 2.3-.9 3.5-1.7 1.6-3.1 1.3-3.1-.7 0-.5.7-.6 1.6-.3 1.5.6 1.4.3-.1-2.1-1.8-2.7-1.8-2.8.1-1.3 1.7 1.4 1.8 1.3.7-.1-1-1.2-1-1.8 0-2.9 1-1.2.9-1.2-.5-.2-2 1.6-2.5.7-2.3-4 .1-2-.3-3.4-.8-3.1-.5.3-.4-.4.2-1.6.7-1.1.9-2.1.5-2.1-.3 0-.1-.6.5-1.3.6-.8.8-1.8.4-2.3-.4-.5-.1-.3.7.4 1.3 1.1 1.3 1.4 0 2.2-.9.6-1 1-.3 1s1.7-1 2.4-2.1c.6-1.2.7-1.9.2-1.6-.4.2-1.7-.5-2.8-1.6l-2-2 2.5 1.2c2.1 1 2.2 1 1-.1-1.7-1.5-2.6-4.3-1-3.3.5.3 1 .1 1-.5 0-.7-.6-1-1.4-.7-1 .4-1.4 0-1.1-1.4.2-1 .7-2.4 1-2.9.3-.5 0-.7-.8-.4-.8.3-1.4 1.3-1.2 2.2.1.9-.2 2.3-.8 2.9-.7.9-.5 1.3.7 1.3 1 0 1.4.5 1.1 1-.4.6-1.1.7-1.7.4-.6-.4-.6.1.1 1.4 1.3 2.4 1.4 3.5.3 2.9-.4-.3-.7 8.9-.7 20.4 0 17.6.2 21.1 1.5 21.9 1.3.8.8 1.4-1 1.2-.3 0-.6.8-.6 1.8s.3 1.8.6 1.8c1.8-.2 2.3.4 1 1.2-1.2.7-1.5 3.1-1.5 10.2-.1 5.4.3 9.6 1 10 .7.6.7 1 0 1.5-1.3.9-1.5 17.4-.3 16.7.5-.3.6-.9.3-1.4-.4-.7 1.6-2 3.1-2 1.1 0-.3 2.7-2.1 4-2.3 1.7-3.1 4.2-1.2 3.4.8-.3 1.3.4 1.4 1.7.2 1.8 0 1.9-1.5.7-1.5-1.1-1.5-1 0 .8 2 2.3 2.3 4.4.7 4.4-.5 0-.8-.4-.4-.9.3-.5.2-1.2-.3-1.5-.4-.2-.8 3.5-.8 8.4s.4 8.6.8 8.3c1.1-.6 3.8 1.5 3.8 2.9 0 .6-.7.5-1.5-.2-.9-.7-1.9-1-2.2-.6-1 1-1.1 6.6-.1 6 1.3-.8.9 1.1-.5 2.6-1 1.2-.9 1.2.5.1 1.4-1.1 1.7-1 1.7.6.1 3.2 0 5.7-.2 9.3-.3 4.1.1 6 1.5 6 .5 0 .7-.4.3-.9-.3-.6.3-1.5 1.2-2.1 1.7-1.1 1.7-1.1 0-.6-1.2.4-1.7.2-1.4-.6.2-.7.9-1.2 1.4-1.1.5.1 1-.5 1-1.2 0-1-.4-1.2-1.2-.5-.7.5-1.5.7-1.8.3-.9-.9-.9-2.3.1-2.2 1.9.3 2.9-.2 2.9-1.5 0-.8-.5-1.4-1-1.3-.5.1-1.2-.4-1.5-1.2-.3-.9 0-1.1.8-.6.8.5 1.1.4.6-.3-.3-.5-.3-1.2.1-1.5.5-.2.2-.2-.5 0-.8.1-1.2-.3-.9-.9.2-.7 1.1-1.2 1.8-1 .8.1.6-.4-.5-1.3-1-.8-2.3-1.2-2.7-.9-.5.3-.9.2-.9-.3 0-1.3 1.7-3.5 2.6-3.4.5 0 .9-.5.9-1.2 0-.6.4-1.8.8-2.5.5-.7.3-1.2-.4-1.2-.9 0-.9-.3 0-1.4.9-1.1.8-1.5-.5-2-.9-.3-2.2-.2-2.9.4-.9.7-1.2 0-1.2-2.9 0-3.5.2-3.8 1.8-2.8 1.3.8 1.5 1.3.6 1.9-.6.4-.8 1-.4 1.5.5.4 1.2.1 1.7-.6.9-1.6.2-4.3-1-3.6-.4.3-1.3-.1-1.9-.9-.9-1.1-.6-1.3 2.1-1.2l3.2.2v24.7c.1 13.6-.2 24.7-.5 24.7-.4 0-1-.7-1.3-1.6-.4-1-1.3-1.3-2.7-.9-1.8.6-2 .5-1-1.4.7-1.2 1.6-2.1 2.2-2.1.6 0 .7.4.4 1-.4.6.1.7 1.2.3 1.4-.6 1.2-.9-1.5-2-2-.8-3-1.8-2.6-2.7.3-.8.1-1.6-.4-2-1-.6-.9 3 .1 4s.9 2.6-.1 2c-1.3-.8-.8 3 .6 4.7.7.7.9 1.7.5 2-.3.4 0 1.3.7 2.2 1.5 1.8 0 2-1.9.2-1.1-1-1.1-.8 0 1 1 1.7 1.6 1.9 2.6 1.1.8-.6 1.1-1.3.9-1.6-.5-.4 1.8-3.2 2.6-3.2.2 0 .3 7.7.3 17 0 9.4-.4 17-.9 17s-.4.6.1 1.2c1.1 1.5 1.1 13.2.1 13.5-2 .7-4.9.2-4.3-.7.4-.6 1.6-.8 2.8-.5 2 .5 2 .5.4-.5-1.3-.8-2.2-.9-3.1-.1-.7.6-1.7.8-2.2.4-.5-.4-.2 0 .6 1 .9.9 2.8 1.8 4.3 1.9 3.2.3 3.3.6 1 2.5-1 .8-1.3 1.2-.7.9.7-.3 1.5.1 1.8 1 .4 1 .2 1.3-.7.8-.8-.5-.7-.2.2.9.8 1.1.9 1.7.2 1.7s-.8.8-.3 2.2c1 2.9.9 15.9-.2 17.6-.4.7-.2 1.9.4 2.7.9 1.1.9 1.5.1 1.5-.6 0-1.1.5-1.1 1.1 0 .5.3.8.8.5 1-.6.8 6.7-.3 8.4-.5.9-.4 1.1.3.6.7-.4 1.2-.2 1.2.3 0 .6-.4 1.1-1 1.1-.5 0-1 .5-1 1.1 0 .5.4.7 1 .4 1.8-1.1 1.1 1.4-.7 2.5-1.7 1.1-1.7 1.1 0 .6 2.2-.7 2.2 0-.1 2.5-1.2 1.2-2.6 1.7-3.8 1.4-1.8-.6-1.8-.6-.1.5 1.5.9 2.2.8 3.6-.5 1.7-1.5 1.9-1.4 1.9 1 0 1.4-.5 2.5-1 2.5s-.6-.5-.2-1.2c.5-.7.3-.8-.5-.4-.7.5-1 1-.7 1.4.3.3-.2 1-1.1 1.7-1.3.9-1.3 1.4-.3 2 .9.5 1.1.4.6-.3-.7-1.1.4-1.6 2.1-1 1.1.4 1.1 5.2 0 6.5-.5.7-.6 1.3-.1 1.3s.9 4.9.9 10.9c0 7.2-.3 10.7-1 10.3-.6-.4-.6-.1.1.9 1.2 1.7 1.2 5.8 0 7.8-.6 1-.5 1.2.2.7.7-.4 1.2-.2 1.2.3 0 .6-.6 1.1-1.2 1.1-.9 0-.9.3-.2.8 1.3.9 1.3 13.3 0 12.5-.5-.4-.6 0 0 .8 1.5 2.5 1.4 4.1-.4 3.5-1.5-.5-1.5-.4-.2.6 1.6 1.4 2 7.4.6 9.7-.6.9-.5 1.2.1.8 1.2-.8 1.1 7.2-.2 9.2-.5.9-.4 1.2.2.8 1.3-.8 1.1 5.2-.1 7.2-.6 1-.5 1.2.2.7.7-.4 1.2-.1 1.2.9s-.5 1.3-1.2.9c-.7-.5-.8-.3-.2.7.5.8.9 10 .9 20.5 0 16.8-.1 19.1-1.5 18.7-1.3-.4-1.3-.4 0 .6 1.8 1.2 2 3.3.5 4.3-.7.5-.6.8.1.8.8 0 1.2 2 1.2 5.2 0 6.6 1 16.9 2.3 22.7.5 2.4.7 4.6.4 4.9-.2.3 0 1.1.6 1.9.6.7.9 1.3.6 1.3-.3 0 .1 1.6.9 3.5s1.2 3.5 1 3.5c-.3 0 .2 1.6 1 3.5.8 2 1.2 4.1.8 4.7-.4.7-.3.8.4.4s1.2-.1 1.2.8 1.1 4.1 2.5 7.2c1.4 3.1 2.2 6.1 1.8 6.7-.3.6-.1.7.5.3.8-.5 1.2 0 1.2 1.3 0 1.2.5 2.1 1.1 2.1.6 0 .9.9.6 1.9-.3 1.4-.1 1.8.9 1.4.8-.3 1.4.1 1.4 1 0 .8.9 2.6 2 3.9 1 1.4 1.6 2.8 1.3 3.2-.3.3-.1.6.5.6s1.8 1.3 2.6 2.8c.8 1.6 3.5 5.3 6 8.2 2.4 3 4.2 5.8 3.9 6.2-.2.5-.1.7.4.6.4-.2 4.8 3.6 9.8 8.5 4.9 4.8 9.5 8.7 10.2 8.7.7 0 1.3.4 1.3.9s1.5 1.9 3.4 3.2c1.9 1.3 3.2 2.8 2.9 3.3-.3.5-.1.6.5.2.7-.4 3.1.6 5.4 2.2 2.4 1.5 7.3 4.4 11 6.2 3.6 1.9 6.4 3.9 6.1 4.4-.3.5-.1.6.4.3 1-.6 10.3 2 11.3 3.2.3.3 1.4.8 2.5.9 1.1.2 2.2.7 2.5 1 .3.4 1.2.7 2 .7 3.1.1 13.5 2.9 14.2 3.9.5.7.8.6.8-.2 0-.7.5-1 1.1-.6.7.4 2.6.9 4.3 1.1 5.4.6 9.1 1.2 9.1 1.3 0 .1 17.4.2 38.7.2 24.6.1 38.5.5 38.1 1.1-.4.6-.1.7.8.1 2-1.3 208-1.3 207.2-.1-.4.6-.1.7.8.1 2-1.3 64-1.4 63.2-.1-.4.6-.1.7.8.1.8-.5 14.7-1 30.9-1 26.5-.2 34.9-.5 43-1.8 1.4-.2 4.8-.7 7.5-1.1 2.8-.4 5.6-1.2 6.3-1.7.8-.7 1.2-.6 1.2.3 0 .9.3 1 .8.3.5-.9 12.2-4.9 15.4-5.4 1.4-.2 18.8-9 22.8-11.5 2.2-1.4 4.6-2.3 5.3-1.9.7.4.9.4.5-.1-.4-.4 2.7-3.4 7-6.5 13.3-9.7 26.7-24 35.7-38 5.2-8.2 13.5-24.5 13.5-26.7 0-.8.4-1.1 1-.8.6.3.7-.1.4-.9-.3-.9-.2-1.6.4-1.6.6 0 .8-.8.5-1.9-.3-1 0-2.2.6-2.5.6-.4 1.1-1.6 1.1-2.7s.4-1.8.9-1.4c.5.3 1.3 0 1.7-.6.5-.8.3-.9-.6-.4-1.3.8-1.3.6.6-7.5 1-4.1 1.2-5.3 1.9-10.7.6-4.5 1-5.1 2.7-4.8 1.2.3 1.7.1 1.4-.3-.4-.4-1.2-.8-1.7-.8-.5-.1-1.1-.2-1.4-.3-.2 0 0-1.2.5-2.5.5-1.5.5-2.7-.3-3.5-.6-.6-.7-1.1-.1-1.1.5 0 .9-2.1.8-4.8-.2-3.1.3-5.3 1.4-6.5 1.3-1.4 1.3-1.8.2-1.5-1 .2-1.4-1.1-1.5-5.5 0-3.3.3-5.7 1-5.7s.6-.3-.1-.8c-1.3-.8-1.3-20.3-.1-19.5.5.3.4-.3-.2-1.4-.7-1.4-.7-2.4.2-3.3.7-.7.7-1 .1-.7-.7.4-1-2.3-1-8.4 0-5.4.5-8.9 1.1-8.9.5 0 .4-.4-.4-.9-.9-.6-1-1.1-.2-1.5.6-.4.8-1.2.4-1.8-1.2-2.1-1.3-8.8 0-8.8.7 0 .6-.4-.3-1-1.3-.9-1.3-1.1 0-2 .8-.5 1-1 .5-1-.6 0-1-1.6-1.1-3.5 0-2.2.3-3.2 1-2.7 2.9 1.7 4.6-.3 2.1-2.5-.4-.4-.5-.3-.1.4.9 1.6-1 2.6-2.1 1-1.2-1.5-1.1-23.7.1-25.6.5-.8.5-1.2 0-.9-.5.4-.9-2.8-.9-7.3-.1-4.3.3-7.3.7-6.6.5.7.8.8.8.1 0-.6-.3-1.4-.7-1.8-1.3-1.2-1.2-3.8.1-3.3.7.3 1.3-.1 1.3-.9 0-.7-.4-1.1-.9-.8-.9.6-.9.6-1.2-10.6-.1-4.7.3-9.1.9-9.9.7-1.1.7-1.3-.2-.7-.7.4-1.3.3-1.3-.2 0-.6.7-1.3 1.6-1.6 2.2-.9 2.6-.8 1.8.6-.4.7-.3.8.5.4 1.5-1 .4-2.7-1.6-2.4-1.3.3-1.6-1.1-1.7-7.9-.1-5.2.2-7.9.9-7.3.5.6 1.3 1 1.8 1s-.1-.9-1.4-2c-1.3-1-1.8-1.9-1.1-2 .6 0 1.2-.5 1.2-1.1 0-.5-.4-.8-.8-.5-.5.3-.9-.1-.9-.9s.4-1.5.9-1.5.6-.6.1-1.3c-1-1.6-1.1-22.7-.1-22.7.5 0 .8-.5.8-1.1 0-.5-.4-.8-.8-.5-.4.2-.8-1.4-.7-3.7 0-3 .6-4.6 2-5.7 1.1-.8 2.3-1.4 2.8-1.2.4.1.7-.3.7-.8 0-1.5-1.1-1.2-3.2.7-1.7 1.5-1.8 1.5-1.9-.8-.5-9.9-.4-20.9.2-20.9.5 0 .6.9.4 2-.3 1.5.1 2 1.2 1.8.9-.2 1.8.3 2 1 .3.7-.1 1-1 .6-.8-.3-1.8-.1-2.2.5-.4.7.1.8 1.2.4 1.5-.6 1.6-.4.5.9-1.5 1.9-.2 3.1 2.5 2.2 1.7-.6 1.7-.6.1 1.1-1.4 1.5-2 1.6-3.2.5-1.1-.8-1.6-.9-1.6-.1 0 .6.5 1.1 1.1 1.1.5 0 .8.4.5.8-.2.4-.1 1.4.5 2.2.5.9.9 1 .9.3 0-.6.7-1.9 1.6-2.7.8-.9 1.7-2.5 1.9-3.6.3-1.7.1-1.9-1.5-1-3.3 1.7-3.6 1.1-.7-1.5 2.7-2.6 3.6-4.2 1.7-3-.5.3-2-.1-3.2-.9-1.2-.9-1.9-1.6-1.4-1.6s.3-.7-.4-1.5c-.8-.9-1.4-4.6-1.5-8.5-.1-6.4.5-8.4 1.9-6.1.3.4 1.5.8 2.7.7 1.5-.1 2.3-.8 2.4-2.3.1-1.2-.2-2-.7-1.7-.5.4-.7 1.2-.4 2 .3.8.1 1.4-.3 1.4-1.8 0-1.9-3-.2-4.2 1.8-1.3 1.8-1.4.1-3.6-1-1.2-2.1-2.2-2.5-2.2-.4 0-.2.7.5 1.5 1.5 1.8 0 2-2 .2-1.2-1-1.2-.9-.2.4.7.9 1 2.3.6 3.2-.3.8-.1 1.8.5 2.2.6.3 1.1 1.1 1.1 1.8 0 .6-.7.4-1.7-.5-1.1-1.2-1.7-3.6-1.8-7.8-.1-6.3 1-7.6 3.6-4.3 1.2 1.5 1.2 1.6-.3 1-1-.4-1.8-.2-1.8.4 0 .7 1 .9 2.6.5 1.4-.4 2.3-.3 2 .2-.2.4-.1 1.4.4 2.1.5.9.7.3.7-1.7-.1-1.7-.5-2.8-1-2.5-1 .6-3.7-1.6-3.7-2.9 0-.6.6-.5 1.5.2 1.6 1.3 3.5.6 3.4-1.3 0-.9-.2-.9-.6 0-.2.7-.9 1.3-1.4 1.3-.6 0-.7-.5-.4-1 .4-.6.1-1.7-.5-2.5-1.4-1.7 0-2 1.8-.5.9.7.9.7.2-.2-1.2-1.4-1.3-3.1-.2-2.4 1 .6.9-7-.1-8-.3-.4-1.3-.1-2.2.6-.9.8-1.5.8-1.5.2 0-1.1 1.9-2.7 3.2-2.7.3 0 1-.4 1.5-.9s.3-.6-.4-.2c-1.4.8-1.8-.6-.5-1.8 1.1-1.1 1.1-7.6-.1-7.6-.5 0-.5-.6.2-1.4.9-1.1.6-1.7-1.4-3-1.4-.9-2.5-2.1-2.5-2.6 0-.6 1-.4 2.3.5 2.3 1.5 2.3 1.4 2.2-1.6-.1-1.7-.8-3.5-1.6-4-1.2-.8-1.2-1 .1-1.8 2-1.4 2.3-13.7.3-15.7-1.3-1.2-1-1.7.7-1.6.3 0 .5-1.7.5-3.8.1-3-.2-3.7-1.5-3.2-.8.3-1.2.2-.8-.3.4-.4.3-1.4-.3-2.2-1.3-1.5.2-1.8 1.7-.3.6.6.9-2.3.9-8 .1-6.9-.2-8.7-1.2-7.9-.9.8-1.1.5-1-1 .1-1.2.6-2 1.2-1.7 1.2.4 1.3-2.9.2-4-.9-1-.9-2.6.1-2 .4.2.7-9.2.7-20.9 0-14.3-.3-21.1-1-20.4-.5.6-1 1.4-1 1.9 0 .6-.4 1-.9.9-.5 0-1.2.5-1.6 1.1-1.3 2.1-2.8.2-2.5-3.2.2-1.8-.1-4.1-.6-5-.6-1-.5-1.9.1-2.3.5-.3 1-1.1 1-1.6 0-.6-.6-.7-1.2-.3-.9.5-.9.2.1-.9 1-1.3 1-1.7.1-1.7-.7 0-1-.7-.7-1.5.4-.8.2-1.7-.4-2.1-.6-.3-.8-1.3-.5-2.1.4-.9.1-2.2-.5-2.9-.9-1.1-.9-1.8 0-2.8.9-1.1.9-1.5 0-1.8-.7-.2-1.3-1.2-1.5-2.1-.1-.9.2-1.5.7-1.1.5.3.7 1 .4 1.5-.4.5-.1.9.4.9 1.9 0 1.2-2.6-1.3-5.1-1.3-1.3-2.2-3.2-2-4.2.1-.9-.3-1.7-.9-1.7-.5 0-.7-.3-.4-.7.4-.3.3-1.1-.1-1.8-.4-.6 0-.3 1 .7 1.9 2.1 2.8 2.3 2.8.5 0-.7-1.3-2.1-3-3-1.6-1-2.9-2.1-2.8-2.5.1-.4-.3-1.7-1-3-.7-1.2-1-2.2-.6-2.2.3 0 .1-.7-.6-1.5s-.9-1.5-.4-1.5.2-.5-.6-1.1c-1.2-.8-1-.9.7-.4 1.8.5 2.2.3 1.7-.9-.3-.8-1.1-1.3-1.8-1-.7.3-1.8-.2-2.5-1-1-1.2-.8-1.6.9-2.1 2.7-.9 1.7-2.3-1.5-2-1.4.2-2.5-.1-2.5-.6s.5-.9 1.1-.9c.5 0 .7-.5.4-1-.4-.6-1.1-.8-1.7-.4-.5.3-.2-.9.7-2.7 2.2-4.3 2.9-5.1 2-2-.5 1.5-.4 2.1.3 1.7.6-.3 1.4-.1 1.8.5.4.7.3.9-.3.6-.6-.4-1.4 0-1.7.9-.5 1.2-.1 1.4 1.7.9 1.4-.4 1.8-.3.9.3-1 .7-1 1.1.2 2.1 1 .8 1.6.9 2.1.1.3-.5.1-1-.6-1s-1-.3-.6-.6c.8-.8-4.2-10.4-5.9-11.1-.8-.3-1.1-.9-.8-1.4.3-.5 0-.9-.6-.9s-.9-.4-.6-.9c.3-.5-.1-1.2-1-1.5-.8-.3-1.3-1-1-1.4.3-.5-.8-2.3-2.4-4.1-1.7-1.8-3-3.6-3-4 0-.4-4.6-5.5-10.1-11.2-5.6-5.7-9.9-9.6-9.5-8.6.3 1.1.2 1.6-.4 1.2-.6-.3-1-1.2-1-1.9 0-2-3.7-4.9-5.1-4-.9.5-1 .2-.5-1.2.4-1 .4-1.5 0-1.2-.3.4-1.6-.2-2.8-1.3l-2.1-2-2.4 2.8c-1.3 1.5-2 2.2-1.6 1.5.4-.8-.2-2.1-1.4-3.1s-2.1-2.2-2.1-2.6c0-.5 1 .1 2.3 1.3 1.3 1.2 2.7 1.9 3 1.5 1-1 .8-2.5-.2-1.9-.5.3-1.1-.4-1.4-1.5-.4-1.4-1.1-2-2.1-1.6-.8.3-1.7 0-1.9-.8-.3-.7-3.4-2.7-6.9-4.5-3.5-1.7-6.7-3.6-7.3-4.1-.5-.5-1.4-.9-2-.9-.5 0-.3.5.5 1 1 .7 1.1 1 .2 1-.7 0-1.5-.7-1.8-1.5-.4-.8-1-1.2-1.5-.9-.5.3-.9.1-.9-.4 0-.6-1.4-1.5-3.1-2.1-4-1.4-4.2-1.4-3.4.1.4.7-.1.4-.9-.6-.9-1.1-1.6-1.6-1.6-1.2 0 .4-.7 0-1.6-.8-1.9-2-2.8-2-4.3-.3-.8 1.1-.6 1.8.9 3.2 1.1 1 2 2.3 2 2.9 0 1.3-5.9-5.5-5.9-6.9-.1-.6.3-.4.8.4.6.9 1.1 1 1.5.2.7-1-.2-1.5-6.3-3.6-.7-.3-2.1 0-2.9.7-.9.7-1.3.8-.9.2.4-.6-.8-1.5-3-2.2-2.7-.8-3.9-.8-4.4-.1-.4.8-.8.7-1.1-.2-.2-.7-2.1-1.4-4.4-1.5-2.1-.1-4.7-.5-5.6-.9-1.2-.5-1.8-.3-1.8.6 0 1.2-.2 1.2-.9.1-.5-.9-4.1-1.4-11.5-1.7-9.4-.3-10.7-.2-11.6 1.4-.5 1-.6 2.1-.3 2.5.3.3.1.6-.5.6-1.5 0-1.5-.6-.2-3.1.7-1.3.7-1.9 0-1.9-.5 0-1 .6-1 1.2 0 1-.2 1-.9 0-.9-1.5-4.2-1.3-5.3.3-.5.6-.8.6-.8-.1 0-1.8-13.9-1.3-15 .6-.5.8-.6 1.8-.4 2.2.3.4 0 .8-.5.8-1.4 0-1.4-.6-.1-3.1.7-1.3.7-1.9 0-1.9-.5 0-1 .6-1 1.2 0 1-.2 1-.9 0-.9-1.5-4.2-1.3-5.3.3-.5.6-.8.6-.8-.1 0-1.8-13.9-1.3-15 .6-.5.8-.6 1.8-.4 2.2.3.4 0 .8-.5.8-1.4 0-1.4-.6-.1-3.1.7-1.3.7-1.9 0-1.9-.5 0-1 .6-1 1.2 0 1-.2 1-.9 0-.9-1.5-4.2-1.3-5.3.3-.5.6-.8.6-.8-.1 0-1.8-13.9-1.3-15 .6-.5.8-.6 1.8-.4 2.2.3.4 0 .8-.5.8-1.4 0-1.4-.6-.1-3.1.7-1.3.7-1.9 0-1.9-.5 0-1 .6-1 1.2 0 1-.2 1-.9 0-.9-1.5-4.2-1.3-5.3.3-.5.6-.8.6-.8-.1 0-1.8-13.9-1.3-15 .6-.5.8-.6 1.8-.4 2.2.3.4 0 .8-.5.8-1.4 0-1.4-.6-.1-3.1.7-1.3.7-1.9 0-1.9-.5 0-1 .6-1 1.2 0 1-.2 1-.9 0-.9-1.5-4.2-1.3-5.3.3-.5.6-.8.6-.8-.1 0-1.8-13.9-1.3-15 .6-.5.8-.6 1.8-.4 2.2.3.4 0 .8-.5.8-1.4 0-1.4-.6-.1-3.1.7-1.3.7-1.9 0-1.9-.5 0-1 .6-1 1.2 0 1-.2 1-.9 0-.9-1.5-4.2-1.3-5.3.3-.5.6-.8.6-.8-.1 0-1.8-13.9-1.3-15 .6-.5.8-.6 1.8-.4 2.2.3.4 0 .8-.5.8-1.4 0-1.4-.6-.1-3.1.7-1.3.7-1.9 0-1.9-.5 0-1 .6-1 1.2 0 1-.2 1-.9 0-.9-1.5-4.2-1.3-5.3.3-.5.6-.8.6-.8-.1 0-1.8-13.9-1.3-15 .6-.5.8-.6 1.8-.4 2.2.3.4 0 .8-.5.8-1.4 0-1.4-.6-.1-3.1.7-1.3.7-1.9 0-1.9-.5 0-1 .6-1 1.2 0 1-.2 1-.9 0-.9-1.5-4.2-1.3-5.3.3-.5.6-.8.6-.8-.1 0-1.8-13.9-1.3-15 .6-.5.8-.6 1.8-.4 2.2.3.4 0 .8-.5.8-1.4 0-1.4-.6-.1-3.1.7-1.3.7-1.9 0-1.9-.5 0-1 .6-1 1.2 0 1-.2 1-.9 0-.9-1.5-4.2-1.3-5.3.3-.5.6-.8.6-.8-.1 0-1.8-13.9-1.3-15 .6-.5.8-.6 1.8-.4 2.2.3.4 0 .8-.5.8-1.4 0-1.4-.6-.1-3.1.7-1.3.7-1.9 0-1.9-.5 0-1 .6-1 1.2 0 1-.2 1-.9 0-.9-1.5-4.2-1.3-5.3.3-.5.6-.8.6-.8-.1 0-1.8-13.9-1.3-15 .6-.5.8-.6 1.8-.4 2.2.3.4 0 .8-.5.8-1.4 0-1.4-.6-.1-3.1.7-1.3.7-1.9 0-1.9-.5 0-1 .6-1 1.2 0 1-.2 1-.9 0-.9-1.5-4.2-1.3-5.3.3-.5.6-.8.6-.8-.1 0-1.8-13.9-1.3-15 .6-.5.8-.6 1.8-.4 2.2.3.4 0 .8-.5.8-1.4 0-1.4-.6-.1-3.1.7-1.3.7-1.9 0-1.9-.5 0-1 .6-1 1.2 0 1-.2 1-.9 0-.9-1.5-4.2-1.3-5.3.3-.5.6-.8.6-.8-.1 0-1.8-13.9-1.3-15 .6-.5.8-.6 1.8-.4 2.2.3.4 0 .8-.5.8-1.4 0-1.4-.6-.1-3.1.7-1.3.7-1.9 0-1.9-.5 0-1 .6-1 1.2 0 1-.2 1-.9 0-.9-1.5-4.2-1.3-5.3.3-.5.6-.8.6-.8-.1 0-1.8-13.9-1.3-15 .6-.5.8-.6 1.8-.4 2.2.3.4 0 .8-.5.8-1.4 0-1.4-.6-.1-3.1.7-1.3.7-1.9 0-1.9-.5 0-1 .6-1 1.2 0 1-.2 1-.9 0-.9-1.5-4.2-1.3-5.3.3-.5.6-.8.6-.8-.1 0-1.8-13.9-1.3-15 .6-.5.8-.6 1.8-.4 2.2.3.4 0 .8-.5.8-1.4 0-1.4-.6-.1-3.1.7-1.3.7-1.9 0-1.9-.5 0-1 .6-1 1.2 0 1-.2 1-.9 0-.9-1.5-4.2-1.3-5.3.3-.5.6-.8.6-.8-.1s-3.1-1-8.7-1c-9.3.1-12.9 1.1-9.9 2.8.9.5 1.6 1.3 1.6 1.7 0 1.4-2.6 2-4.1.9-1.1-.8-1.1-.9.3-.4 1 .3 2 .1 2.3-.4.4-.6.2-1-.2-1-.5 0-1.8-.7-2.9-1.5-1.4-1.1-1.5-1.4-.3-.9 1 .3 1.9.1 2.3-.4.8-1.3-11.7-1.1-12.6.2-.5.7-.8.8-.8.1 0-.6-.9-1.1-2.1-1.2-2.2-.2-5.1 2.2-6.3 5.2-.6 1.7-.8 1.7-2.3.2-1.4-1.4-1.5-1.9-.4-2.9 1-1.1 1.1-1 .6.3-.4 1-.2 2 .3 2.3.6.3 1.3-.6 1.6-1.9.4-1.4 1.1-2.3 1.6-2 .6.3 1 .2 1-.4 0-1.4-5.9-.9-6.5.6zM161 5.3c0 .5-1 .1-2.1-.7-1.2-.8-2.6-1.3-3.3-1.2-.6.2-.8.1-.3-.1.4-.3.5-.9.2-1.4-.3-.5.8-.1 2.4.9 1.7.9 3.1 2.1 3.1 2.5zm2.9-.4c-.1 1.3-.2 1.3-.6-.2-.2-.9-.9-1.7-1.4-1.7-.5 0-.9-.5-.9-1.1 0-.8.5-.8 1.5.1.8.7 1.4 2 1.4 2.9zm5.1-.6c0 .6-.7.2-1.5-.9-1.5-1.9-1.6-1.9-1.3.1.2 1.1 1 2.3 1.8 2.7 1.1.6 1 .7-.4.5-1.9-.2-3-3.2-2-4.9.7-1.1 3.4 1 3.4 2.5zm8-2.3c0 .5-.4 1-1 1-.5 0-1-.5-1-1 0-.6.5-1 1-1 .6 0 1 .4 1 1zm4.4.7c-1 .7-2.3 1.3-2.8 1.2-.6 0-.5-.3.2-.6.6-.2 1-.8.8-1.2-.3-.4.4-.7 1.5-.7 1.9 0 1.9.1.3 1.3zm5.3 1.3c-.4 2.8-1.2 3.3-2.7 1.5-1-1.2-1-1.8 0-3 1.5-1.9 3.1-1 2.7 1.5zm3.5-.7c-.7.8-.8 1.8-.4 2.2.4.5.1.5-.6.1-.9-.5-.9-1.2-.1-2.7.6-1.2 1.3-1.8 1.6-1.5.3.3.1 1.2-.5 1.9zm6.4-1.4c-.4.5-.3 1.1.1 1.4.5.2.2.2-.6 0s-2.2.4-3.2 1.3c-1.1 1-1.9 1.3-1.9.8s1.2-1.7 2.8-2.6c3.1-2 3.5-2.1 2.8-.9zm8.8.8c-1 .7-2.3 1.3-2.8 1.2-.6 0-.5-.3.2-.6.6-.2 1-.8.8-1.2-.3-.4.4-.7 1.5-.7 1.9 0 1.9.1.3 1.3zm5.3 1.3c-.4 2.8-1.2 3.3-2.7 1.5-1-1.2-1-1.8 0-3 1.5-1.9 3.1-1 2.7 1.5zm3.5-.7c-.7.8-.8 1.8-.4 2.2.4.5.1.5-.6.1-.9-.5-.9-1.2-.1-2.7.6-1.2 1.3-1.8 1.6-1.5.3.3.1 1.2-.5 1.9zm6.4-1.4c-.4.5-.3 1.1.1 1.4.5.2.2.2-.6 0s-2.2.4-3.2 1.3c-1.1 1-1.9 1.3-1.9.8s1.2-1.7 2.8-2.6c3.1-2 3.5-2.1 2.8-.9zm8.8.8c-1 .7-2.3 1.3-2.8 1.2-.6 0-.5-.3.2-.6.6-.2 1-.8.8-1.2-.3-.4.4-.7 1.5-.7 1.9 0 1.9.1.3 1.3zm5.3 1.3c-.4 2.8-1.2 3.3-2.7 1.5-1-1.2-1-1.8 0-3 1.5-1.9 3.1-1 2.7 1.5zm3.5-.7c-.7.8-.8 1.8-.4 2.2.4.5.1.5-.6.1-.9-.5-.9-1.2-.1-2.7.6-1.2 1.3-1.8 1.6-1.5.3.3.1 1.2-.5 1.9zm6.4-1.4c-.4.5-.3 1.1.1 1.4.5.2.2.2-.6 0s-2.2.4-3.2 1.3c-1.1 1-1.9 1.3-1.9.8s1.2-1.7 2.8-2.6c3.1-2 3.5-2.1 2.8-.9zm8.8.8c-1 .7-2.3 1.3-2.8 1.2-.6 0-.5-.3.2-.6.6-.2 1-.8.8-1.2-.3-.4.4-.7 1.5-.7 1.9 0 1.9.1.3 1.3zm5.3 1.3c-.4 2.8-1.2 3.3-2.7 1.5-1-1.2-1-1.8 0-3 1.5-1.9 3.1-1 2.7 1.5zm3.5-.7c-.7.8-.8 1.8-.4 2.2.4.5.1.5-.6.1-.9-.5-.9-1.2-.1-2.7.6-1.2 1.3-1.8 1.6-1.5.3.3.1 1.2-.5 1.9zm6.4-1.4c-.4.5-.3 1.1.1 1.4.5.2.2.2-.6 0s-2.2.4-3.2 1.3c-1.1 1-1.9 1.3-1.9.8s1.2-1.7 2.8-2.6c3.1-2 3.5-2.1 2.8-.9zm8.8.8c-1 .7-2.3 1.3-2.8 1.2-.6 0-.5-.3.2-.6.6-.2 1-.8.8-1.2-.3-.4.4-.7 1.5-.7 1.9 0 1.9.1.3 1.3zm5.3 1.3c-.4 2.8-1.2 3.3-2.7 1.5-1-1.2-1-1.8 0-3 1.5-1.9 3.1-1 2.7 1.5zm3.5-.7c-.7.8-.8 1.8-.4 2.2.4.5.1.5-.6.1-.9-.5-.9-1.2-.1-2.7.6-1.2 1.3-1.8 1.6-1.5.3.3.1 1.2-.5 1.9zm6.4-1.4c-.4.5-.3 1.1.1 1.4.5.2.2.2-.6 0s-2.2.4-3.2 1.3c-1.1 1-1.9 1.3-1.9.8s1.2-1.7 2.8-2.6c3.1-2 3.5-2.1 2.8-.9zm8.8.8c-1 .7-2.3 1.3-2.8 1.2-.6 0-.5-.3.2-.6.6-.2 1-.8.8-1.2-.3-.4.4-.7 1.5-.7 1.9 0 1.9.1.3 1.3zm5.3 1.3c-.4 2.8-1.2 3.3-2.7 1.5-1-1.2-1-1.8 0-3 1.5-1.9 3.1-1 2.7 1.5zm3.5-.7c-.7.8-.8 1.8-.4 2.2.4.5.1.5-.6.1-.9-.5-.9-1.2-.1-2.7.6-1.2 1.3-1.8 1.6-1.5.3.3.1 1.2-.5 1.9zm6.4-1.4c-.4.5-.3 1.1.1 1.4.5.2.2.2-.6 0s-2.2.4-3.2 1.3c-1.1 1-1.9 1.3-1.9.8s1.2-1.7 2.8-2.6c3.1-2 3.5-2.1 2.8-.9zm8.8.8c-1 .7-2.3 1.3-2.8 1.2-.6 0-.5-.3.2-.6.6-.2 1-.8.8-1.2-.3-.4.4-.7 1.5-.7 1.9 0 1.9.1.3 1.3zm5.3 1.3c-.4 2.8-1.2 3.3-2.7 1.5-1-1.2-1-1.8 0-3 1.5-1.9 3.1-1 2.7 1.5zm3.5-.7c-.7.8-.8 1.8-.4 2.2.4.5.1.5-.6.1-.9-.5-.9-1.2-.1-2.7.6-1.2 1.3-1.8 1.6-1.5.3.3.1 1.2-.5 1.9zm6.4-1.4c-.4.5-.3 1.1.1 1.4.5.2.2.2-.6 0s-2.2.4-3.2 1.3c-1.1 1-1.9 1.3-1.9.8s1.2-1.7 2.8-2.6c3.1-2 3.5-2.1 2.8-.9zm8.8.8c-1 .7-2.3 1.3-2.8 1.2-.6 0-.5-.3.2-.6.6-.2 1-.8.8-1.2-.3-.4.4-.7 1.5-.7 1.9 0 1.9.1.3 1.3zm5.3 1.3c-.4 2.8-1.2 3.3-2.7 1.5-1-1.2-1-1.8 0-3 1.5-1.9 3.1-1 2.7 1.5zm3.5-.7c-.7.8-.8 1.8-.4 2.2.4.5.1.5-.6.1-.9-.5-.9-1.2-.1-2.7.6-1.2 1.3-1.8 1.6-1.5.3.3.1 1.2-.5 1.9zm6.4-1.4c-.4.5-.3 1.1.1 1.4.5.2.2.2-.6 0s-2.2.4-3.2 1.3c-1.1 1-1.9 1.3-1.9.8s1.2-1.7 2.8-2.6c3.1-2 3.5-2.1 2.8-.9zm8.8.8c-1 .7-2.3 1.3-2.8 1.2-.6 0-.5-.3.2-.6.6-.2 1-.8.8-1.2-.3-.4.4-.7 1.5-.7 1.9 0 1.9.1.3 1.3zm5.3 1.3c-.4 2.8-1.2 3.3-2.7 1.5-1-1.2-1-1.8 0-3 1.5-1.9 3.1-1 2.7 1.5zm3.5-.7c-.7.8-.8 1.8-.4 2.2.4.5.1.5-.6.1-.9-.5-.9-1.2-.1-2.7.6-1.2 1.3-1.8 1.6-1.5.3.3.1 1.2-.5 1.9zm6.4-1.4c-.4.5-.3 1.1.1 1.4.5.2.2.2-.6 0s-2.2.4-3.2 1.3c-1.1 1-1.9 1.3-1.9.8s1.2-1.7 2.8-2.6c3.1-2 3.5-2.1 2.8-.9zm8.8.8c-1 .7-2.3 1.3-2.8 1.2-.6 0-.5-.3.2-.6.6-.2 1-.8.8-1.2-.3-.4.4-.7 1.5-.7 1.9 0 1.9.1.3 1.3zm5.3 1.3c-.4 2.8-1.2 3.3-2.7 1.5-1-1.2-1-1.8 0-3 1.5-1.9 3.1-1 2.7 1.5zm3.5-.7c-.7.8-.8 1.8-.4 2.2.4.5.1.5-.6.1-.9-.5-.9-1.2-.1-2.7.6-1.2 1.3-1.8 1.6-1.5.3.3.1 1.2-.5 1.9zm6.4-1.4c-.4.5-.3 1.1.1 1.4.5.2.2.2-.6 0s-2.2.4-3.2 1.3c-1.1 1-1.9 1.3-1.9.8s1.2-1.7 2.8-2.6c3.1-2 3.5-2.1 2.8-.9zm8.8.8c-1 .7-2.3 1.3-2.8 1.2-.6 0-.5-.3.2-.6.6-.2 1-.8.8-1.2-.3-.4.4-.7 1.5-.7 1.9 0 1.9.1.3 1.3zm5.3 1.3c-.4 2.8-1.2 3.3-2.7 1.5-1-1.2-1-1.8 0-3 1.5-1.9 3.1-1 2.7 1.5zm3.5-.7c-.7.8-.8 1.8-.4 2.2.4.5.1.5-.6.1-.9-.5-.9-1.2-.1-2.7.6-1.2 1.3-1.8 1.6-1.5.3.3.1 1.2-.5 1.9zm6.4-1.4c-.4.5-.3 1.1.1 1.4.5.2.2.2-.6 0s-2.2.4-3.2 1.3c-1.1 1-1.9 1.3-1.9.8s1.2-1.7 2.8-2.6c3.1-2 3.5-2.1 2.8-.9zm8.8.8c-1 .7-2.3 1.3-2.8 1.2-.6 0-.5-.3.2-.6.6-.2 1-.8.8-1.2-.3-.4.4-.7 1.5-.7 1.9 0 1.9.1.3 1.3zm5.3 1.3c-.4 2.8-1.2 3.3-2.7 1.5-1-1.2-1-1.8 0-3 1.5-1.9 3.1-1 2.7 1.5zm3.5-.7c-.7.8-.8 1.8-.4 2.2.4.5.1.5-.6.1-.9-.5-.9-1.2-.1-2.7.6-1.2 1.3-1.8 1.6-1.5.3.3.1 1.2-.5 1.9zm6.4-1.4c-.4.5-.3 1.1.1 1.4.5.2.2.2-.6 0s-2.2.4-3.2 1.3c-1.1 1-1.9 1.3-1.9.8s1.2-1.7 2.8-2.6c3.1-2 3.5-2.1 2.8-.9zm8.8.8c-1 .7-2.3 1.3-2.8 1.2-.6 0-.5-.3.2-.6.6-.2 1-.8.8-1.2-.3-.4.4-.7 1.5-.7 1.9 0 1.9.1.3 1.3zm5.3 1.3c-.4 2.8-1.2 3.3-2.7 1.5-1-1.2-1-1.8 0-3 1.5-1.9 3.1-1 2.7 1.5zm3.5-.7c-.7.8-.8 1.8-.4 2.2.4.5.1.5-.6.1-.9-.5-.9-1.2-.1-2.7.6-1.2 1.3-1.8 1.6-1.5.3.3.1 1.2-.5 1.9zm6.4-1.4c-.4.5-.3 1.1.1 1.4.5.2.2.2-.6 0s-2.2.4-3.2 1.3c-1.1 1-1.9 1.3-1.9.8s1.2-1.7 2.8-2.6c3.1-2 3.5-2.1 2.8-.9zm8.8.8c-1 .7-2.3 1.3-2.8 1.2-.6 0-.5-.3.2-.6.6-.2 1-.8.8-1.2-.3-.4.4-.7 1.5-.7 1.9 0 1.9.1.3 1.3zm5.3 1.3c-.4 2.8-1.2 3.3-2.7 1.5-1-1.2-1-1.8 0-3 1.5-1.9 3.1-1 2.7 1.5zm3.5-.7c-.7.8-.8 1.8-.4 2.2.4.5.1.5-.6.1-.9-.5-.9-1.2-.1-2.7.6-1.2 1.3-1.8 1.6-1.5.3.3.1 1.2-.5 1.9zm6.4-1.4c-.4.5-.3 1.1.1 1.4.5.2.2.2-.6 0s-2.2.4-3.2 1.3c-1.1 1-1.9 1.3-1.9.8s1.2-1.7 2.8-2.6c3.1-2 3.5-2.1 2.8-.9zm8.8.8c-1 .7-2.3 1.3-2.8 1.2-.6 0-.5-.3.2-.6.6-.2 1-.8.8-1.2-.3-.4.4-.7 1.5-.7 1.9 0 1.9.1.3 1.3zm5.3 1.3c-.4 2.8-1.2 3.3-2.7 1.5-1-1.2-1-1.8 0-3 1.5-1.9 3.1-1 2.7 1.5zm3.5-.7c-.7.8-.8 1.8-.4 2.2.4.5.1.5-.6.1-.9-.5-.9-1.2-.1-2.7.6-1.2 1.3-1.8 1.6-1.5.3.3.1 1.2-.5 1.9zm6.4-1.4c-.4.5-.3 1.1.1 1.4.5.2.2.2-.6 0s-2.2.4-3.2 1.3c-1.1 1-1.9 1.3-1.9.8s1.2-1.7 2.8-2.6c3.1-2 3.5-2.1 2.8-.9zm8.8.8c-1 .7-2.3 1.3-2.8 1.2-.6 0-.5-.3.2-.6.6-.2 1-.8.8-1.2-.3-.4.4-.7 1.5-.7 1.9 0 1.9.1.3 1.3zm6.6 2.7c0 .5-.7.1-1.5-1-.8-1-1.4-2.4-1.4-2.9 0-.6.6-.1 1.4.9.8 1.1 1.5 2.4 1.5 3zm5-.9c0 .5-.4.4-.9-.3-.7-1.1-.9-1.1-1.4.1-.3.9 0 1.7.6 2 1.5.5 6.9-2.7 6-3.6-.3-.4-.1-.7.5-.7 1.7 0 1.5 2-.3 2.6-1.3.5-1.3.9-.3 2.3 1 1.3 1 1.4-.2.3-1.6-1.4-3.4-1.6-2.5-.3.3.6-.4.8-1.5.6-3.5-.7-4-1.4-2.8-4.1.8-1.8 1.4-2.1 2-1.2.4.7.8 1.7.8 2.3zm2.5-1.7c-.3.3-1.1 0-1.8-.7-.9-1-.8-1.1.6-.5 1 .3 1.5.9 1.2 1.2zM144.4 5c.8 0 1.9.6 2.5 1.3.8 1 .7 1.4-.4 1.4-.8 0-1.3-.3-1-.5.3-.3-.5-1-1.8-1.7-1.8-.9-2.4-.8-3.4.4-1 1.4-1.4 1.4-2.5.2s-1-1.3.6-.7c1.4.5 1.7.2 1.2-.9-.3-.9-.2-1.3.4-1 .6.3 1 0 1-.7 0-.8.5-.6 1.1.4.5 1 1.6 1.8 2.3 1.8zm-15.2 1.2c-.8.8-.9.4-.5-1.3.4-1.3.8-1.8 1.1-1 .2.7-.1 1.8-.6 2.3zm4.5-2.5c-.4.3-.2 1.2.4 2 .9.9.8 1.3 0 1.3-.6 0-1.1-.5-1.1-1.1 0-.5-.6-.7-1.2-.3-.9.5-.9.2.1-.9.7-.9 1.6-1.7 1.9-1.7.3 0 .2.3-.1.7zm411.4 1.5c1.1 2.1 1.1 2.2-.4.9-1-.7-1.7-1.7-1.7-2.2 0-1.5.9-1 2.1 1.3zM564.5 4c.3.6-.1.7-.9.4-1.8-.7-2.1-1.4-.7-1.4.6 0 1.3.4 1.6 1zm4.5 1.1c0 .5-.8.9-1.7.8-1.1 0-1.3-.3-.5-.6.6-.2.9-1 .6-1.5-.4-.7-.2-.8.4-.4.7.4 1.2 1.1 1.2 1.7zm-6 1.1c0 .6-.8.4-1.7-.3-1.5-1.2-1.6-1.2-.9.6.5 1.5.4 1.7-.5.8-.6-.6-.8-1.6-.5-2.2.8-1.2 3.6-.3 3.6 1.1zm16.6 1.1c.4.6.4.9-.1.5-.4-.4-1.4-.1-2.2.7-.8.8-1.9 1.5-2.5 1.5-.6 0 0-.9 1.3-2 2-1.6 2.1-1.9.7-2-1 0-1.8-.5-1.8-1 0-1.3 3.6.4 4.6 2.3zM158.5 6c.3.5 0 1.2-.6 1.6-.8.4-.9.3-.5-.4.8-1.3-2.8-1.2-4 .1-.4.4-1.2.7-1.8.7-.5 0-.2-.6.8-1.3 2.1-1.5 5.3-1.9 6.1-.7zm24 0c.3.5 0 1.2-.6 1.6-.8.4-.9.3-.5-.4.8-1.4-2-1.2-4.4.3-1.2.7-1.3.6-.3-.6 1.3-1.7 5-2.2 5.8-.9zm16.1.9c.1.6 0 .7-.2.2-.3-.5-1.7-.7-3-.5-1.6.3-2.3.1-1.9-.6.8-1.3 4.8-.7 5.1.9zm7.9-.9c.3.5 0 1.2-.6 1.6-.8.4-.9.3-.5-.4.8-1.4-2-1.2-4.4.3-1.2.7-1.3.6-.3-.6 1.3-1.7 5-2.2 5.8-.9zm16.1.9c.1.6 0 .7-.2.2-.3-.5-1.7-.7-3-.5-1.6.3-2.3.1-1.9-.6.8-1.3 4.8-.7 5.1.9zm7.9-.9c.3.5 0 1.2-.6 1.6-.8.4-.9.3-.5-.4.8-1.4-2-1.2-4.4.3-1.2.7-1.3.6-.3-.6 1.3-1.7 5-2.2 5.8-.9zm16.1.9c.1.6 0 .7-.2.2-.3-.5-1.7-.7-3-.5-1.6.3-2.3.1-1.9-.6.8-1.3 4.8-.7 5.1.9zm7.9-.9c.3.5 0 1.2-.6 1.6-.8.4-.9.3-.5-.4.8-1.4-2-1.2-4.4.3-1.2.7-1.3.6-.3-.6 1.3-1.7 5-2.2 5.8-.9zm16.1.9c.1.6 0 .7-.2.2-.3-.5-1.7-.7-3-.5-1.6.3-2.3.1-1.9-.6.8-1.3 4.8-.7 5.1.9zm7.9-.9c.3.5 0 1.2-.6 1.6-.8.4-.9.3-.5-.4.8-1.4-2-1.2-4.4.3-1.2.7-1.3.6-.3-.6 1.3-1.7 5-2.2 5.8-.9zm16.1.9c.1.6 0 .7-.2.2-.3-.5-1.7-.7-3-.5-1.6.3-2.3.1-1.9-.6.8-1.3 4.8-.7 5.1.9zm7.9-.9c.3.5 0 1.2-.6 1.6-.8.4-.9.3-.5-.4.8-1.4-2-1.2-4.4.3-1.2.7-1.3.6-.3-.6 1.3-1.7 5-2.2 5.8-.9zm16.1.9c.1.6 0 .7-.2.2-.3-.5-1.7-.7-3-.5-1.6.3-2.3.1-1.9-.6.8-1.3 4.8-.7 5.1.9zm7.9-.9c.3.5 0 1.2-.6 1.6-.8.4-.9.3-.5-.4.8-1.4-2-1.2-4.4.3-1.2.7-1.3.6-.3-.6 1.3-1.7 5-2.2 5.8-.9zm16.1.9c.1.6 0 .7-.2.2-.3-.5-1.7-.7-3-.5-1.6.3-2.3.1-1.9-.6.8-1.3 4.8-.7 5.1.9zm7.9-.9c.3.5 0 1.2-.6 1.6-.8.4-.9.3-.5-.4.8-1.4-2-1.2-4.4.3-1.2.7-1.3.6-.3-.6 1.3-1.7 5-2.2 5.8-.9zm16.1.9c.1.6 0 .7-.2.2-.3-.5-1.7-.7-3-.5-1.6.3-2.3.1-1.9-.6.8-1.3 4.8-.7 5.1.9zm7.9-.9c.3.5 0 1.2-.6 1.6-.8.4-.9.3-.5-.4.8-1.4-2-1.2-4.4.3-1.2.7-1.3.6-.3-.6 1.3-1.7 5-2.2 5.8-.9zm16.1.9c.1.6 0 .7-.2.2-.3-.5-1.7-.7-3-.5-1.6.3-2.3.1-1.9-.6.8-1.3 4.8-.7 5.1.9zm7.9-.9c.3.5 0 1.2-.6 1.6-.8.4-.9.3-.5-.4.8-1.4-2-1.2-4.4.3-1.2.7-1.3.6-.3-.6 1.3-1.7 5-2.2 5.8-.9zm16.1.9c.1.6 0 .7-.2.2-.3-.5-1.7-.7-3-.5-1.6.3-2.3.1-1.9-.6.8-1.3 4.8-.7 5.1.9zm7.9-.9c.3.5 0 1.2-.6 1.6-.8.4-.9.3-.5-.4.8-1.4-2-1.2-4.4.3-1.2.7-1.3.6-.3-.6 1.3-1.7 5-2.2 5.8-.9zm16.1.9c.1.6 0 .7-.2.2-.3-.5-1.7-.7-3-.5-1.6.3-2.3.1-1.9-.6.8-1.3 4.8-.7 5.1.9zm7.9-.9c.3.5 0 1.2-.6 1.6-.8.4-.9.3-.5-.4.8-1.4-2-1.2-4.4.3-1.2.7-1.3.6-.3-.6 1.3-1.7 5-2.2 5.8-.9zm16.1.9c.1.6 0 .7-.2.2-.3-.5-1.7-.7-3-.5-1.6.3-2.3.1-1.9-.6.8-1.3 4.8-.7 5.1.9zm7.9-.9c.3.5 0 1.2-.6 1.6-.8.4-.9.3-.5-.4.8-1.4-2-1.2-4.4.3-1.2.7-1.3.6-.3-.6 1.3-1.7 5-2.2 5.8-.9zm16.1.9c.1.6 0 .7-.2.2-.3-.5-1.7-.7-3-.5-1.6.3-2.3.1-1.9-.6.8-1.3 4.8-.7 5.1.9zm7.9-.9c.3.5 0 1.2-.6 1.6-.8.4-.9.3-.5-.4.8-1.4-2-1.2-4.4.3-1.2.7-1.3.6-.3-.6 1.3-1.7 5-2.2 5.8-.9zm16.1.9c.1.6 0 .7-.2.2-.3-.5-1.7-.7-3-.5-1.6.3-2.3.1-1.9-.6.8-1.3 4.8-.7 5.1.9zm7.9-.9c.3.5 0 1.2-.6 1.6-.8.4-.9.3-.5-.4.8-1.4-2-1.2-4.4.3-1.2.7-1.3.6-.3-.6 1.3-1.7 5-2.2 5.8-.9zm16.1.9c.1.6 0 .7-.2.2-.3-.5-1.7-.7-3-.5-1.6.3-2.3.1-1.9-.6.8-1.3 4.8-.7 5.1.9zm7.9-.9c.3.5 0 1.2-.6 1.6-.8.4-.9.3-.5-.4.8-1.4-2-1.2-4.4.3-1.2.7-1.3.6-.3-.6 1.3-1.7 5-2.2 5.8-.9zM124 7c-1.3.9-1.3 1.1 0 2.1 1.3.9 1.3 1 0 .6-.8-.2-2.1.3-2.9 1-.7.8-1.5 1.2-1.8 1-.6-.6 4-5.7 5.2-5.7.6 0 .3.5-.5 1zm2.7 2.2c-.3.7-.5.2-.5-1.2s.2-1.9.5-1.3c.2.7.2 1.9 0 2.5zm437.4-.9c-1 .9-1.1.8-.5-.6.3-1 .9-1.5 1.2-1.2.3.3 0 1.1-.7 1.8zM574.5 7c.3.5 0 .7-.9.4-.8-.3-2.5 0-3.8.6-2.2 1.1-2.2 1-.4-.4 2.3-1.8 4.2-2 5.1-.6zm9.5.5c-1 1.2-1 1.5 0 1.5.8 0 1.1.3.7.6-.3.3-1.1.3-1.7-.1-.8-.5-.8-1.1.1-2.1.6-.8 1.4-1.4 1.6-1.4.3 0 0 .7-.7 1.5zM132.5 8c.3.6-.1.7-.9.4-1.8-.7-2.1-1.4-.7-1.4.6 0 1.3.4 1.6 1zm4.5 0c0 .5-.5 1-1.1 1-.5 0-.7-.5-.4-1 .3-.6.8-1 1.1-1 .2 0 .4.4.4 1zm450.4.5c-.4.8-.8 1.5-1 1.5-.2 0-.4-.7-.4-1.5s.4-1.5 1-1.5c.5 0 .7.7.4 1.5zm-14.9.5c-.3.5-1.2 1-1.8 1-.7 0-.6-.4.3-1 1.9-1.2 2.3-1.2 1.5 0zm-465.6 1.4c.9 1.1.9 1.6 0 2.2-.8.4-.9.3-.5-.4s.2-1.2-.3-1.2c-.6 0-1.1-.5-1.1-1 0-1.4.5-1.3 1.9.4zM581 10c0 .5-.4 1-1 1-.5 0-1-.5-1-1 0-.6.5-1 1-1 .6 0 1 .4 1 1zm14.9 1.8c-.1 1.5-.2 1.5-.6-.1-.2-.9-.9-1.4-1.5-1.1-.7.4-.8.2-.4-.5 1-1.5 2.6-.4 2.5 1.7zM113 11c0 .5-.2 1-.4 1-.3 0-.8-.5-1.1-1-.3-.6-.1-1 .4-1 .6 0 1.1.4 1.1 1zm-12.7 1.5c-.3.9-.8 1.4-1 1.1-.3-.3-.2-.9.2-1.5.9-1.6 1.5-1.3.8.4zm4.2-.4c1.1 1.6.1 1.9-1.3.3-.7-.8-.8-1.4-.3-1.4s1.3.5 1.6 1.1zm480.8-.4c-.7.2-1.9.2-2.5 0-.7-.3-.2-.5 1.2-.5s1.9.2 1.3.5zm4.4.8c.8.9 1.3 1.8 1.1 2.1-.3.2-1.3-.5-2.3-1.6-2.1-2.3-1.1-2.7 1.2-.5zm9.3 1.6c0 .6-.4.7-1 .4-.5-.3-1-1.1-1-1.6 0-.6.5-.7 1-.4.6.3 1 1.1 1 1.6zm-497 .4c-.6.8-.9 1.9-.6 2.4.4.6-.2.8-1.5.6-3.1-.6-3.4-1.2-1-2 1.2-.3 2.1-1.1 2.1-1.6s.5-.9 1.1-.9c.8 0 .8.4-.1 1.5zm501.2-.2c-1.2.7-1.9 1.7-1.5 2.2.4.4.2.5-.5.1-1.7-1 .3-3.6 2.7-3.6 1.2.1 1 .4-.7 1.3zM94.4 15.5c-.4.8-.8 1.5-1 1.5-.2 0-.4-.7-.4-1.5s.4-1.5 1-1.5c.5 0 .7.7.4 1.5zm14.3-.9c-.3.3-1.2.4-1.9.1-.8-.3-.5-.6.6-.6 1.1-.1 1.7.2 1.3.5zM606.5 16c.7 1.2-1.2 4-2.7 4-.5 0-.2-.7.7-1.6.9-.9 1.3-1.9 1-2.2-.3-.4-1 0-1.5.8-.6.8-1 1-1 .4 0-2.3 2.4-3.2 3.5-1.4zM97 19.5c0 .5-.5.3-1-.5s-1-2-1-2.5c0-.6.5-.3 1 .5s1 1.9 1 2.5zm-2.7.8c-.3.5-.9.4-1.3-.3-.5-.9-1.2-.7-2.6.7-1.1 1-2.8 2.5-3.8 3.3-1.8 1.4-1.8 1.4-.5-.7.7-1.2 1.5-2 1.7-1.8.6.6 3.9-3 3.4-3.8-.2-.5.5-.3 1.6.4 1.2.7 1.8 1.7 1.5 2.2zm517.6 0c.4-.1.7.8.8 2 0 1.2-.1 1.6-.4.9-.3-.6-.9-1-1.4-.6-.5.3-.8.2-.7-.3.1-.4-.3-1.9-1-3.3-1.3-2.4-1.2-2.4.3-.5.9 1.1 2 1.9 2.4 1.8zm1.8-1.7c-.3.3-1.2.4-1.9.1-.8-.3-.5-.6.6-.6 1.1-.1 1.7.2 1.3.5zm-5.3 2c.3.8.2 1.2-.4.9-.6-.3-1-1-1-1.6 0-1.4.7-1.1 1.4.7zm12 2.6c1.9 1.7 3.1 2.2 4.9 1.9.4 0 .7.3.7.9 0 1.4-1.2 1.2-3.7-.5-2-1.4-2.3-1.4-3.3.2-1.1 1.7-1.1 1.7-.6-.1.7-2.1-.9-4.6-2.7-4.2-.7.1-.9.1-.4-.1.4-.3.4-1 0-1.6-.7-1.2 1.6.4 5.1 3.5zm4.1.6c-.3.3-1.1 0-1.8-.7-.9-1-.8-1.1.6-.5 1 .3 1.5.9 1.2 1.2zm-546.1.7c.3.8.1 1.5-.4 1.5-.6 0-1-.7-1-1.5s.2-1.5.4-1.5.6.7 1 1.5zm538.6-.3c0 .4-.4.8-.9.8-.6 0-1.2-.4-1.5-.8-.3-.5.1-.9.9-.9s1.5.4 1.5.9zm7 4.4c0-.5 1.1.1 2.5 1.4 1.4 1.3 2.5 2.7 2.5 3.2s-1-.2-2.2-1.5c-1.3-1.4-2.7-2.5-3.3-2.5-.5 0-1.1-.6-1.3-1.4-.2-.9 0-.8.7.2.6.8 1.1 1.1 1.1.6zM67.6 32.2c-.7.5-.5.8.7.8.9 0 1.7.5 1.7 1 0 .6-1.3.4-2.9-.5-1.9-.9-3.2-1.1-3.6-.5-.3.6-1.1 1-1.8 1-.6 0-.2-.6.8-1.4 1.1-.8 2.5-1.2 3.2-.9.9.4 1.1 0 .6-1.3-.6-1.6-.5-1.7.9-.4 1.1 1.1 1.2 1.7.4 2.2zm569.7 1.9c1.4 2.6 2 2.9 3.2 1.9 1-.9 1.5-.9 1.5-.1 0 .6-.5 1.1-1.1 1.1-.5 0-.7.6-.3 1.2.8 1.4-2.6-1-3.7-2.6-.4-.4-.9-.3-1.3.2-.4.6.3 1.6 1.4 2.2 1.1.6 2 1.5 2 2 0 .6-1.1 0-2.5-1.2-1.7-1.5-2.2-2.5-1.5-3.2 1.8-1.8 1.1-3-.8-1.3-1 1-2.2 1.7-2.7 1.7-.4 0 .2-.8 1.3-1.9 1.2-1 1.9-2.1 1.5-2.5-.3-.3-.2-.6.3-.6s1.7 1.4 2.7 3.1zm-571.9 3c-1.9 2.1-3.4 2.5-3.4.9 0-.6.5-.9 1.1-.8.6.2 1.4-.3 1.6-1 .3-.8-.2-1-1.4-.6-1.4.5-1.5.4-.4-.4.8-.6 2-.8 2.8-.5 1.1.4 1.1.9-.3 2.4zm-4.6.6c-.2 2.5-2.8 6.7-2.8 4.6 0-.5.5-1.4 1.2-2.1.7-.7.8-1.2.2-1.2-.6 0-1.4.3-1.8.7-.4.5-1.1.8-1.4.8-2.4.2-5.1 1.8-4.6 2.7.5.7.2.8-.5.4-.9-.6-.8-1.3.6-2.6 1-.9 2-1.6 2.2-1.4.2.2 1-.4 1.8-1.4 1.2-1.6 1.3-1.6.7.3-.5 1.9-.5 1.9.9.3.8-1 1.8-1.4 2.2-1 .5.4.5-.1.2-1.1-.4-.9-.2-1.7.3-1.7s.9 1.2.8 2.7zM643.3 39c-.3 1.1 0 2 .6 2s1.1.5 1.1 1.2c0 .8-.6.6-1.6-.4-.9-.9-1.4-2.4-1.1-3.2.9-2.3 1.6-2 1 .4zm3 3.9c1.8-2.1 3.3-1.7 2.7.7-.1.4.4 1.1 1.2 1.6 1 .8.9.9-.4.4-1-.3-2.2.2-2.7 1.2-.6.9-1.1 1.3-1.1.8s.7-1.8 1.7-2.8c.9-1 1.1-1.8.6-1.8-.6 0-1.6.7-2.3 1.5-1.2 1.4-1.6 1.3-3.7-.6-1.2-1.3-2.3-2.7-2.3-3.2s1 .3 2.2 1.8l2.2 2.8 1.9-2.4zm-588.8.8c.5 1.5.4 1.6-.6.5-1.7-1.6-3.5-1.6-2.1.1.8 1 .6 1.3-.8 1.3-1.5 0-1.6-.4-.9-1.8 1.2-2.3 3.5-2.3 4.4-.1zM52 48.4c0 2.3-1.6 2.7-3.1.8-1.3-1.6-1.3-1.6.5-.2 1.8 1.4 1.9 1.3 1.3-.3-.3-.9-.2-1.7.3-1.7.6 0 1 .6 1 1.4zm598 2.1c0 .5-.5.3-1-.5s-1-2-1-2.5c0-.6.5-.3 1 .5s1 1.9 1 2.5zm2-1.9c0 .8.5 1.2 1 .9.6-.4.8-1.1.5-1.6-.4-.5-.1-.9.4-.9.6 0 1.1.7 1.1 1.6 0 .8.5 1.2 1 .9.6-.3 1-.1 1 .4 0 .6 1.8 2.9 4 5.1 2.2 2.2 3.9 4.4 3.8 4.9-.2.5 1.1 2.2 2.8 3.8 2.9 2.8 3 3.1 1.2 4.2s-2.3.6-1.9-2.5c.1-.6-.8-1.9-1.9-2.9-1.1-1-2-1.3-2-.7 0 .6.5 1.4 1 1.7 1.4.8 1.3 2.5-.2 2.5-.6 0-.8-.3-.5-.7.4-.3.2-1.2-.4-2-.9-1-.8-1.7.1-2.8 1.5-1.8-.1-2-1.8-.3-.8.8-.8 1.7-.1 3.2 1 2 1 2-.5.2-1.4-1.7-1.4-2.1-.1-3.6 2.1-2.3 1.9-3.7-.2-1.7-1.6 1.3-2 1.4-3.7.1-1.1-.8-1.5-1.4-1-1.4.6 0 1.5.5 2.1 1.1.8.8 1.1.4 1-1.5-.2-3-.2-2.9-2.7-1.6-1.6.8-1.8.8-1.4-.5.3-.8 1-1.2 1.5-.9.5.3.9-.1.9-.9s-.7-1.8-1.6-2.1c-2.1-.8-2.2-.8-2 .6 0 .7-.3 1.4-.9 1.6-.5.1-1-.6-1.1-1.7-.1-1-.4-2.3-.8-3-.4-.6-.2-1.1.3-1.1.6 0 1.1.7 1.1 1.6zM44 55.9c0 .6-.5 1.3-1 1.6-.6.4-.7 1.2-.4 1.8.4.7.1.6-.7-.2-1.1-1-1.1-1.5-.1-1.8.6-.3 1-.9.6-1.4-.3-.5 0-.9.5-.9.6 0 1.1.4 1.1.9zm-10.2 6.8c-.2 1.1.6 1.9 2.2 2.4 1.7.5 1.9.7.7.8-1.1.1-1.5.6-1.1 1.3.5.7.3.8-.6.3-1-.6-1.2-.4-.7.7.3 1-.4 2.5-1.8 3.8-1.4 1.3-2.2 2.6-2 3.1.3.4 0 1.1-.6 1.5-.8.4-.9.3-.5-.4s.1-1.2-.9-1.2c-.9 0-1.3.4-1 1 .3.5.1 1-.5 1-.7 0-1-.7-.6-1.5.3-.8.1-1.5-.4-1.5-.6 0-1-.5-1-1.2 0-.9.3-.9 1.2 0 2.3 2.3 3.4.6 1.6-2.3-.3-.6.1-1.6.9-2.4 1.3-1.2 1.4-1.1.8.8-.6 2-.5 2.1 1.4.9 1.2-.7 2.1-1.6 2.1-2.1 0-.4-.4-.5-1-.2-.5.3-1 .1-1-.5 0-.7.7-.9 1.6-.6 1 .4 1.4.2 1.1-.6-.2-.7-1-1.2-1.6-1-.8.1-.7-.4.1-1.8 1.6-2.4 2-2.5 1.6-.3zM671.9 73c-1.2.8-4.9-.4-4.9-1.7 0-.3.8-1.1 1.7-1.8 1.5-1.1 2-1 3.2.7 1.1 1.7 1.1 2.2 0 2.8zm4.1 2c1.2.8 1.2 1.1-.2 2.7-.8 1-1.8 2.5-2.1 3.3-.4 1.2-.6 1.1-.6-.3-.1-.9-.4-1.7-.9-1.7-.4 0-1.3-.9-2-2.1-.8-1.2-1-1.9-.5-1.6.5.3 1.5.2 2.3-.4 1.9-1.1 2.1-1.1 4 .1zM23.3 87.5c-.3.9-.8 1.4-1 1.1-.3-.3-.2-.9.2-1.5.9-1.6 1.5-1.3.8.4zm-9 24c-.3.9-.8 1.4-1 1.1-.3-.3-.2-.9.2-1.5.9-1.6 1.5-1.3.8.4zm684.3 40.2c-.1 1.6-.5 3.4-.9 4-.5.7-.4 1.3.1 1.3.4 0 .8 1.8.8 3.9 0 2.2-.3 3.9-.6 3.9s-1.1 0-1.9.1c-1.7.1-.5 1.6 1.2 1.6 1.5 0 1.8 18.4.4 20.2-.6.8-.5 1.8.2 2.7.9 1 .8 1.6-.4 2.6-.8.7-1.2 1.6-.9 2.1.3.5 0 .9-.7.9-.8 0-.8.4.1 1.5.7.8 1.5 1.3 1.9 1.1.4-.3.8.4.8 1.5.1 1-.3 1.9-.8 1.9-.6 0-.8-.4-.4-.9.3-.5.1-1.3-.5-1.6-.6-.4-1-.3-.9.2.4 2-.2 2.7-1.2 1.3-.9-1.3-1-1.3-.6 0 .2.8 1 1.4 1.6 1.2.6-.1 1.1.3 1.1.9 0 .5.4.8.8.5.4-.2.8.6.8 2 0 1.3-.5 2.3-1 2.1-.6-.2-1-1.1-.8-2.1.2-.9-.3-1.6-.9-1.6-.7 0-.9.3-.6.7.4.3.2 1.2-.4 2-.6.7-.9 1.4-.5 1.4.3.1 1.1.3 1.6.4.6.1 1.6.3 2.2.4.7 0 .2.8-1 1.7-1.8 1.3-2.1 1.9-1.1 3 .6.8.8 1.4.3 1.4s-.1.7.9 1.4c1.6 1.3 1.6 1.4.1 2-.9.4-1.9.4-2.2.1-.3-.3 0-.5.8-.5.9 0 1-.3.1-1.3-.6-.8-.9-1.7-.6-2 .3-.4.2-.5-.2-.1-1.1.8-1.1 16.7 0 18.1.6.9.5 1.3-.3 1.3-.6 0-1 .5-.8 1.1.2.6.8.9 1.3.7.6-.2.9-.6.8-1-.2-.4.5-.4 1.4-.1 1.1.4 1.3.8.5 1.1-1 .3-1 .7-.2 1.7.9 1.1.7 1.2-.9.8-1.3-.3-2.1-.1-2.1.6s.4 1 .8.7c.4-.2.8.4.8 1.4 0 1-.3 1.7-.7 1.4-.4-.2-.9.3-1.2 1.1-.5 1.1-.1 1.2 2 .4 2.3-.8 2.4-.8 1.3.6-1 1.2-1 1.5 0 1.5.8 0 1 .3.7.6-.4.4-1.2.2-2-.4-.7-.6-1.8-.7-2.6-.3-.9.6-.4 1.5 1.9 3.5 1.7 1.4 2.7 2.6 2.1 2.6-.5 0-.9.9-.8 2 .1 1.1.5 2 .9 2 1.7 0 .1 5.2-2.5 8.5-2.1 2.6-2.3 3.4-1.2 3.9.8.3 1.7.1 2-.4.4-.6 1.2-1 1.8-.9.9 0 .9.2 0 .6-.7.2-1.3.9-1.3 1.4 0 .6.4.8.8.5 1.5-.9.6 3.4-1.1 5.1-1.5 1.5-1.6 1.5-1.4-.5.1-1.2.5-2.2 1-2.2.4 0 .5-.5.2-1.1-1-1.5-1.8-.3-2 2.9-.1 1.5-.5 3.4-1 4.2-.7 1.2-.6 1.3.7.3 1.5-1.3 2.8-.8 2.8 1 0 .6-.3.7-.6.4-.4-.3-1.4-.2-2.3.2-1.4.8-1.6-1-1.6-18.9 0-10.9.3-19.6.7-19.4.5.3.8-.2.8-1.1 0-.9-.4-1.4-.8-1.1-.4.2-.8-.9-.7-2.5 0-1.6.3-2.9.7-2.9.4 0 .5-.6.2-1.4-.8-2.2-1-24.7-.2-25.2.5-.3.8-1 .8-1.5 0-.6-.4-.8-.8-.5-.5.3-.9-.1-.9-.8 0-.9.7-1.2 1.6-.8 1.3.5 1.4.3.3-1-.7-.8-.9-2.4-.5-3.3.5-1.4.3-1.6-.8-1-.8.5-.7.1.4-1.2 2-2.3 2.3-4 .4-2.5-1 .9-1.3.4-1.3-2.3 0-1.8.4-3.1.9-2.8.5.3.6-.5.2-1.8-1.1-3.8-1.1-4.4.3-4.1.8.1 1.2-.3.9-1-.2-.7-.8-1.2-1.3-1.1-.5.1-.9-1.4-.9-3.2 0-1.8.3-3.1.7-2.9.3.2.9 0 1.3-.6.3-.5.2-1-.3-1-1.3 0-2.2-3.9-1.1-4.6.5-.3.6-1.1.2-1.7-1-1.7-1.1-4.7-.1-5.3.5-.3.4-1.2-.3-2-1-1.2-.9-1.3.6-.8 1.6.7 1.6.5-.1-2.2-1.1-1.5-1.4-2.5-.7-2.1.6.4 1.4.3 1.8-.3.3-.5 0-1-.7-1s.1-.9 1.7-1.9c1.7-1.1 3-2 3.1-2 .1-.1.1 1.1 0 2.6zM2.5 167c-.3.5-.1 1.2.5 1.5.8.5.7 1.1-.1 2.1-1.7 2.1 1.3 5.3 3.3 3.6 1.9-1.5 1.6 3.1-.3 5.4-1.2 1.6-1.2 1.7.2 1.2 1-.4 1.6-.1 1.6.8 0 .8-.4 1.4-.9 1.4s-.6.6-.1 1.2c1.2 2 1.2 3.9.1 3.2-.6-.4-.8.2-.3 1.7.4 1.3.8 2.6.9 2.9 0 .3-.3.6-.9.7-.5.1-.9-.6-.9-1.6.1-1.3-.4-1.7-1.3-1.4-1.1.4-1.1.8-.3 1.3.6.4 1.1 1 1.1 1.4-.3 1.4 1.2 5.6 1.8 5.2.4-.3.7 1.5.7 3.9s-.4 4.1-.9 3.8c-.5-.3-.6.5-.1 1.8 1 3 1 5.8 0 8.8-.5 1.4-.4 2.1.1 1.8.5-.4 1 0 1 .8s-.4 1.2-.9.9c-.4-.3-.8-.1-.8.5 0 .5.3 1.1.8 1.4.4.2.1.2-.6 0-.8-.1-1.2.3-.9.9.2.7.9 1.2 1.4 1.1.5-.1.9 1.6.9 3.8 0 2.7-.5 3.9-1.4 3.9-1.2 0-1.2-.3-.1-1.7.8-.9.9-1.4.3-1-.6.3-1.1 0-1.1-.8s.4-1.2.9-.9c.4.3.8.1.8-.5 0-1.7-1.8-2.1-2.4-.5-.3.8-1 1.3-1.4 1-.5-.3-.9.1-.9.9s.4 1.2.8.9c.4-.2 1 0 1.3.5.3.5-.1 1.1-.9 1.5-.8.3-1.5 1.1-1.5 1.8 0 .9.3.9 1-.2.8-1.3 1.1-1.3 1.9-.1.5.7 1.3 1.1 1.7.8 1-.6 1.1 9.4.1 11-.4.6-.4 1.3 0 1.6.5.2.3.3-.3.1-.6-.1-1.1.4-1.1 1.1 0 .7.6 1.1 1.4.8.7-.3 1.3 0 1.3.6s-.4 1.1-.9 1.1-1.8.3-2.8.6c-1 .3-1.4.2-.8-.3 1.4-1.2 1.7-3.3.4-3.3-.8 0-.8-.4 0-1.4.7-.8.8-1.6.4-1.8-.4-.3-.3-.4.2-.2.6.1 1.2-.8 1.3-1.9.1-1.6-.1-1.8-.7-.8-.5.7-1.4 1-2 .7-.6-.4-.9-1.2-.5-1.7.3-.5 1-.7 1.5-.4.5.4 1 .1 1-.4.5-4 .3-4.6-1.6-4.6-1.7 0-2-.7-2.1-5.3 0-4.9.8-6.8 1.9-4 .3.7.4.3.4-.9-.1-1.2-.4-2-.8-1.8-.3.3-.5-.7-.3-2 .1-1.4-.1-2.5-.5-2.5-1 0-.9-6 .1-6.1.4-.1 1.4-.2 2.1-.3.6-.1 1-.8.8-1.6-.2-.8-.4-2.5-.4-3.8-.1-1.2-.5-2.2-1-2.2s-.6.7-.3 1.6c.4 1 .2 1.3-.7.8-.9-.5-.9-.4.1.7 1.5 1.7 1.5 2.6-.1 3.2-.9.3-1.3-.8-1.3-4.3 0-2.7.3-4.7.7-4.4 1.2.7 1.8-2.3.6-3.5-.8-.8-.8-1.4 0-2.2 1.2-1.2.6-4.2-.6-3.5-.3.2-.6-3.1-.6-7.4-.1-5.3.3-7.6 1-7.1 1.3 1.1 4.6 1 3.9 0-.2-.5-1.1-.6-1.9-.2-1 .3-1.5-.1-1.5-1.2 0-.9-.4-1.4-.8-1.1-.5.3-.8-1.7-.8-4.4s.4-4.6.8-4.3c.5.2.6.8.3 1.3zM698 220c-.6 1.1-1.6 2-2.3 2-.7 0-.6-.4.3-1 1.3-.9 1.3-1 0-1.1-1 0-.8-.3.5-.9 1.1-.5 2.1-.9 2.3-.9.1-.1-.2.8-.8 1.9zm-.7 4.2c1.4 1.5 2.1 8.8.9 8.8-.5 0-1.3-.5-2-1.2-.9-.9-.7-1.4.5-2.3 1.3-1 1.3-1.4.3-2-.9-.5-1.1-.4-.6.3.4.7.3 1.2-.2 1.2s-.9-1.4-.8-3c.1-3.4.3-3.5 1.9-1.8zM5 260c0 .5-.6 1-1.2 1.1-1 0-1 .2 0 .6.6.2 1.2.9 1.2 1.4 0 .5-.9.4-1.9-.3-1.5-.9-1.7-1.5-.9-2.5 1.2-1.5 2.8-1.7 2.8-.3zm692 31.5c-.7.9-1.5 1.3-1.8 1-.3-.2.1-1.1.8-2 .7-.9 1.5-1.3 1.8-1 .3.2-.1 1.1-.8 2zM5.3 299.4c.3.8 0 1.9-.7 2.5-1.1.9-1.3.6-1.3-1.4 0-2.7 1.2-3.4 2-1.1z"/><path d="M184.4 3.1c-.3.6-.2 1.5.3 2s.9.1 1-1.1c.2-2.2-.2-2.5-1.3-.9zm24 0c-.3.6-.2 1.5.3 2s.9.1 1-1.1c.2-2.2-.2-2.5-1.3-.9zm24 0c-.3.6-.2 1.5.3 2s.9.1 1-1.1c.2-2.2-.2-2.5-1.3-.9zm24 0c-.3.6-.2 1.5.3 2s.9.1 1-1.1c.2-2.2-.2-2.5-1.3-.9zm24 0c-.3.6-.2 1.5.3 2s.9.1 1-1.1c.2-2.2-.2-2.5-1.3-.9zm24 0c-.3.6-.2 1.5.3 2s.9.1 1-1.1c.2-2.2-.2-2.5-1.3-.9zm24 0c-.3.6-.2 1.5.3 2s.9.1 1-1.1c.2-2.2-.2-2.5-1.3-.9zm24 0c-.3.6-.2 1.5.3 2s.9.1 1-1.1c.2-2.2-.2-2.5-1.3-.9zm24 0c-.3.6-.2 1.5.3 2s.9.1 1-1.1c.2-2.2-.2-2.5-1.3-.9zm24 0c-.3.6-.2 1.5.3 2s.9.1 1-1.1c.2-2.2-.2-2.5-1.3-.9zm24 0c-.3.6-.2 1.5.3 2s.9.1 1-1.1c.2-2.2-.2-2.5-1.3-.9zm24 0c-.3.6-.2 1.5.3 2s.9.1 1-1.1c.2-2.2-.2-2.5-1.3-.9zm24 0c-.3.6-.2 1.5.3 2s.9.1 1-1.1c.2-2.2-.2-2.5-1.3-.9zm24 0c-.3.6-.2 1.5.3 2s.9.1 1-1.1c.2-2.2-.2-2.5-1.3-.9zm24 0c-.3.6-.2 1.5.3 2s.9.1 1-1.1c.2-2.2-.2-2.5-1.3-.9zM659 56c0 .5.5 1 1 1 .6 0 1-.5 1-1 0-.6-.4-1-1-1-.5 0-1 .4-1 1zM30.9 71c-1.3 1-1.9 1.9-1.3 2 .6 0 1.9-.9 2.9-2 2.3-2.6 1.4-2.6-1.6 0zm637.5.2c-.4.7-.3.8.4.4s1.2-.2 1.2.4c0 .6.5.8 1 .5 1.1-.7.4-2.5-1-2.5-.5 0-1.2.5-1.6 1.2zm3.9 4.5c-1 .3-1 .7 0 1.8 1.3 1.4 4.1 0 3.1-1.6-.6-1-1.2-1-3.1-.2zm24.7 76.4c0 .5-.6.7-1.2.3-.7-.4-1-.4-.6.1.4.4.3 1.4-.4 2.2-.8 1-.8 1.7 0 2.5s.8 1.7 0 3.2c-1.5 2.7-1.7 5.5-.6 6.2.5.3.3 1.3-.4 2.2-1.1 1.3-1.1 1.4.1.7 1.1-.6 1.3-.4.8.9-.4 1-.1 1.9.9 2.3 1.2.4 1.1.8-.6 2-1.5 1.1-1.8 1.8-1.1 2.7.6.7.8 1.6.4 1.9-.3.4.2.9 1.1 1.3 1.3.5 1.4.9.5 2-.6.8-1.6 1.1-2.2.7-.6-.4-.7-.1-.1.8 1.2 1.9 1.4 4.1.6 5.3-1.8 3-.5 4.1 2.6 2.2 1-.6 1-1.1.2-2.1-.7-.8-.8-2-.4-2.7 1-1.5 1.2-19.8.3-19.2-.4.2-1.1-.2-1.7-.9-1.1-1.3-.1-4.1 1.3-3.5 1.5.6 1.5-4.1 0-5.6-1.8-1.7-1.9-2.7-.4-2.4.6.2 1.3-.7 1.5-2 .2-1.2.2-2.2-.1-2.2-.3 0-.5.5-.5 1.1zm-.3 8.7c0 1-.6 1.9-1.3 1.9-.9 0-.9-.5-.1-1.9.7-1 1.3-1.8 1.4-1.8.1 0 .1.8 0 1.8zM696 176c-1.2.8-1.2 1-.1 1 .8 0 1.2.3.8.6-.9.9-2.8-.6-2.2-1.7.4-.5 1.2-.9 1.8-.9.7 0 .6.4-.3 1zm.6 8.5c-.1.8-.5 1.7-.8 2.1-.5.4-.4-1.6.1-3.4.3-.9.9.1.7 1.3zm-.2 6.6c-.3.5-1 .7-1.5.3-.5-.3-.7-1-.3-1.5.3-.5 1-.7 1.5-.3.5.3.7 1 .3 1.5zm-3 19.4c0 1.8.4 3.1.9 2.8.4-.3.6-.8.3-1.1-.3-.3.2-1.5 1.1-2.6 1-1.2 1.4-1.8.9-1.4-.5.4-1.4.4-2-.2-.8-.6-1.2.1-1.2 2.5zm-.1 38c0 .8.4 1.2.9.9.5-.3.6-1 .3-1.5-.9-1.3-1.2-1.1-1.2.6zm1.2 2.3c-.6.4-1 2.6-1.1 4.8 0 4.2 0 4.2 2.3 2.7 2.7-1.8 3-2.5.6-1.6-1 .3-1.5.3-1.1-.2.4-.4.2-1.5-.5-2.3-1-1.3-.9-1.5.7-.9 1.5.6 1.7.5.7-.7-.9-1.1-.9-1.5.1-1.9.7-.3.9-.6.3-.6-.5 0-1.5.3-2 .7zm.5 9.5c-.8.7-1.6 2-1.8 3.1-.3 1.5-.1 1.6 1.1.5.8-.8 1.3-1.7 1.1-2.1-.2-.3.2-.8.8-1.1.7-.2 1.1-.7.8-1-.3-.3-1.2 0-2 .6zM2.5 184.1c-.1 5.8.9 6.7 3.3 2.9.7-1.2.8-2.1.2-2.5-.6-.4-.8-1-.5-1.5.3-.5.1-1.2-.5-1.5-.7-.5-.8-1.1-.1-1.9.7-.8.5-1.2-.7-1.2-1.4 0-1.7 1-1.7 5.7zm2.1-1.3c-.3.3-.1 1.1.4 1.7.7.9.6 1.6-.3 2.3-1 .9-1.3.4-1.3-2.3 0-1.8.4-3.1.9-2.8.4.3.6.8.3 1.1zm-1.6 13c0 .5.3 1.2.8 1.6 1.2 1.2.9 3-.8 4.3-1.3 1-1.2 1.1.5 1 1.2-.1 1.9.3 1.7 1.1-.1.8.1 1.1.6.8 1.3-.7.9-5.1-.6-6.8-.6-.8-.9-1.8-.5-2.1.3-.4.1-.7-.5-.7-.7 0-1.2.4-1.2.8zM5.5 211c-.4.6-1.1.8-1.6.5-.5-.4-.9-.1-.9.4 0 .6.5 1.1 1.1 1.1.5 0 .7.5.4 1-.4.6-1.1.7-1.7.4-.5-.4-.4.4.3 1.7.7 1.3 1.2 2.5 1.1 2.6-.1.2 0 .3.3.3h1.2c.4 0 .2-.5-.5-1.2-1.5-1.5-1.6-3.2-.2-2.3.6.4 1 .3.9-.2-.1-.4 0-1 .1-1.3.4-1.2.8-4 .5-4-.2 0-.7.5-1 1zM69 27c0 1.9 2.6 3.9 3.9 3.1.9-.6.5-1.3-1.3-2.5-1.5-1-2.6-1.2-2.6-.6zM36.3 61.5c.2.5 1 1 1.7 1s1.5-.5 1.7-1c.2-.6-.6-1.1-1.7-1.1s-1.9.5-1.7 1.1zM17.4 84.7c.3.3-.1 1.5-.9 2.7-1.6 2.3-2.1 7.1-.6 6.1.6-.3.8-1.4.6-2.5-.3-1.3.1-1.7 1.2-1.3.8.3 1.1.9.6 1.2-1.4 1-1.5 3.3-.1 2.8.7-.2 1.2-1 1.1-1.6-.2-.6.3-1.1 1-1.1s.8-.3.2-.8c-1.2-.9-1.3-3.5-.2-4.3.5-.3-.1-.9-1.3-1.2-1.2-.3-1.9-.3-1.6 0zm663.2 3.8c-1.1.8-1.6 1.8-1.3 2.2.4.3 1.4-.2 2.3-1.3.8-1 1.3-1.4 1-.7-.9 1.7.5 4.5 1.9 3.9.9-.3 1.2.3 1 1.9-.1 1.4.2 2.2.6 1.9.5-.3.9 0 .9.5 0 .6.5 1.1 1 1.1.6 0 .2-1.2-.7-2.7-1-1.5-1.7-3-1.7-3.3.2-.9-1.9-5-2.5-5-.3 0-1.5.7-2.5 1.5zM12 97c-.7 1.6-1.2 3.2-1.1 3.5.1.3-.6 1.9-1.4 3.5-.9 1.7-1.2 3-.8 3 .4 0 .2.5-.5 1.2-.9.9-.7 1.4.6 2.5 1.6 1.2 1.6 1.3 0 .7-1-.3-1.8-.1-1.8.5 0 1.8 0 1.9-1.5 5.5-.8 1.8-1.2 3.6-.9 3.9.3.3.2 1.2-.2 1.9-1.2 1.8-1.7 4.6-1.7 9.5-.1 2.6-.5 4-1.1 3.6-.6-.4-.7-.2-.3.3.5.5 1.3 1 1.8 1 .5.1 1.1.2 1.4.3.3 0 .1 1-.4 2-.8 1.4-.7 2 .3 2.4 1 .4 1.2 0 .9-1.4-.3-1.1 0-1.9.6-1.9.7 0 .9.5.5 1.2s-.3.8.5.4c.8-.6.9-1.2.2-2-.6-.7-.7-1.7-.3-2.1.4-.5.2-.5-.5-.2-2.4 1.4-1.9-1.9.6-4.1 1.4-1.3 2-2.1 1.4-1.7-.7.3-1.3.1-1.3-.6 0-.8-.4-.8-1.5.1-.8.7-1.3 1.6-1 2 .3.5.2 1.1-.3 1.4-.4.2-.8-.6-.8-1.9 0-1.3.4-2.2.8-1.9.4.3.5-.3.2-1.3-.5-1.5-.4-1.6.5-.3s1.1 1.3 1.1 0c0-1.2.2-1.2.9-.1.6.9 1.1 1 1.5.2.4-.6.3-1.1-.1-1.1-.5 0-.9-.9-1-2.1-.1-1.5.2-1.9 1.4-1.5 1.3.5 1.3.4.4-.7s-.6-2 1-4.1c1.4-1.7 1.8-3.3 1.3-4.4-.4-.9-.8-2.4-1-3.1-.4-2.1 2.8-7.1 4-6.4.6.4.5-.1-.3-1-.7-.9-1.8-1.4-2.5-1.1-.6.3-.3-.1.6-.9 1-.8 1.5-1.7 1.1-2-.3-.4-.1-.7.5-.7.7 0 1.2.5 1.2 1.1 0 .5.5.7 1.1.3.8-.5.6-1-.5-1.6-.9-.5-2.1-.6-2.8-.2-.7.4-.8.3-.4-.5.4-.6 1.6-.9 2.5-.6 1.1.3 2.4-.2 3.2-1.2.9-1.1 1-1.4.2-.9-.8.4-1.3.2-1.3-.5 0-.8-.5-.7-1.7.2-1.1 1-1.4 1-.9.1.4-.6.3-1.2-.2-1.2s-1.5 1.3-2.2 3zm-.5 9.1c-.4.5-1.2.9-1.8.8-.9 0-.8-.2.1-.6.6-.2.9-1 .6-1.5-.4-.7-.2-.8.5-.4.6.4.9 1.2.6 1.7zm-1.6 7.8c.8 1.4.5 2.3-1 4-1.1 1.1-1.7 2.1-1.4 2.1.3 0 .3.5 0 1-.4.6-1.1.8-1.6.4-.6-.4-.6-1 0-1.8.6-.7.7-1.6.3-2-.4-.4-.2-.7.3-.6 2.1.5 2.9-.1 1.5-1-1-.6-1.1-1-.2-1 .6 0 1.2-.5 1.2-1.1 0-.5-.5-.7-1.2-.3-.7.4-.8.3-.4-.4 1-1.6 1.4-1.5 2.5.7zM5.5 124c-.3.5-.1 1 .5 1s.8.5.4 1.1c-.4.8-.9.7-1.5-.2-.7-1.2-.3-2.9.7-2.9.3 0 .2.4-.1 1z"/><path d="M683 95.1c0 .5-.6.7-1.2.3-.9-.5-.9-.2.1.9.7.9 1 1.7.7 1.7-.4 0-.1 1 .6 2.2.7 1.3 1.2 2.6 1.1 2.9-.1.3.9 1.2 2.3 2 3.7 2 4.9 4.6 2.4 5.4-2.6.8-2.2 2.3 1.8 6.1 1.7 1.7 3.2 3.5 3.2 4s-.5.2-1-.6c-.6-1-1-1.1-1-.3 0 2.3-.2 2.8-1 3.8-1 1.2-.4 2.3 2.2 4.3 1.5 1.2 1.7 1.1 1.5-.7-.1-1.3-.6-2-1.4-1.7-.7.3-1.5.1-1.8-.4-.3-.5.9-.7 2.7-.5 1.8.3 2.8.1 2.3-.3-.6-.4-1-1.4-1-2.2 0-.8-.5-3.4-1.1-5.7-.7-2.2-.9-4.5-.6-4.9.4-.4.2-.4-.5 0-.6.3-1.4.2-1.8-.4-.3-.5 0-1 .7-1 1 0 1-.2 0-.9-.8-.4-1.4-1.2-1.4-1.7.1-.5-.9-1.5-2.1-2.2l-2.2-1.3 2.3.6c1.2.4 2.2.4 2.2.1 0-1.9-2.6-5.6-4.6-6.5-1.5-.7-2.2-1.6-1.8-2.6.3-.8.1-1.5-.5-1.5s-1.1.5-1.1 1.1zm5.9 6.7c.7 1.4.5 1.8-.9 1.8-1.1 0-1.7-.2-1.5-.5.3-.2-.3-1-1.3-1.8-1.6-1.2-1.6-1.3.2-.6 1.4.5 1.7.3 1.1-.7-.5-.9-.4-1.1.3-.6.7.4 1.6 1.5 2.1 2.4zm2.7 11.3c.5 0 .9.5.9 1.2 0 .6.4 1.8.8 2.4.5.9.3 1.1-.6.7-.8-.3-1.9-1.6-2.6-3-1.3-2.9-1.4-4.5-.2-2.6.4.8 1.2 1.3 1.7 1.3zm3.4 9.4c0 .2-.6.5-1.3.8-.8.3-1.4-.1-1.4-.8 0-.7.6-1.1 1.4-.8.7.3 1.3.6 1.3.8z"/><path d="M691.5 129c-.4.6-.1 1.8.7 2.7.7.9 1.2 1.8 1.1 2-.2.1-.3.4-.2.5.6 2.2.6 4.5-.1 5.3-.6.8-.4 1.9.6 3.1.8 1 1.3 1.3.9.6-.4-.7-.3-1.2.2-1.1 2.2.4 2.5-.3.7-1.7-1-.8-1.3-1.3-.7-.9.9.4 1.1.1.7-.9-.3-.9-.2-1.6.3-1.6s1 .6 1.1 1.2c.1.7.3 2.4.4 3.8.2 1.4-.2 2.5-.9 2.6-.7.1-1.7.2-2.1.3-.4 0-.8 1.2-.8 2.6 0 1.7.3 2.1 1.1 1.5.7-.6 1.5-.8 1.8-.5.4.3.5.2.2-.2-.3-.3.1-1.6.9-2.9 1.6-2.3 1.7-6.4.3-6.4-.5 0-.4-.6.2-1.4.8-1 .9-1.6.1-2.1-.5-.3-.8-1.7-.6-2.9.5-2.8-.8-5.4-1.9-3.7-.5.9-1 .9-2 .1s-1.5-.8-2 0zm4.8 1.7c-.7.3-1.3.9-1.3 1.4 0 .6.6.7 1.3.3.8-.5.7-.2-.2.9-1.3 1.6-2.6 1.5-2.6-.1 0-.4-.3-1.2-.7-1.7-.3-.6.5-1.1 2-1.1 1.5-.1 2.1.1 1.5.3zM4.4 154.8c-1.4.8-1.3 5.4.1 6.4.6.5.6.8-.1.8-.6 0-1.1.6-1.1 1.4 0 1.1.4 1.2 1.8.3 1.3-.8 1.5-1.5.8-2.4-.6-.7-.8-1.7-.5-2.2.4-.5.2-1.3-.4-1.6-.8-.5-.7-1.1.1-2.1 1.3-1.5 1-1.8-.7-.6zm1.1 114.1c-.3.5-.2 1.2.3 1.5.5.3.9-.1.9-.9 0-1.7-.3-1.9-1.2-.6zm-5.3 9.7c0 1.7.3 2.2.8 1.3.5-.6.6-1.8.3-2.6-.8-1.9-1-1.6-1.1 1.3zm4.4 12.3c-1.9.7-1.9.8 0 1.3 1.3.3 2.1 0 2.1-.8s-.1-1.4-.1-1.3c-.1 0-1 .4-2 .8zm690.4 8.3c0 .5.4.7.9.3.5-.3 1.2-.1 1.5.4.3.5-.4 1.1-1.5 1.4-1.3.4-1.8 1-1.4 1.7.4.7.2 1.6-.6 2-.9.6-.5 1.1 1.4 1.5 1.5.4 2.5 1.1 2.2 1.5-.3.4.2 1 1 1.3 1.2.5 1.2.2.3-1.8-.6-1.3-1.6-2.1-2.2-1.9-.7.3-1.2-.5-1.2-1.6s.5-1.9 1.2-1.6c.6.2 1.6-.5 2.1-1.7.9-1.9.7-2.2-1.3-2.3-1.3-.1-2.4.2-2.4.8z"/><path d="M699.2 304c0 1.4.2 1.9.5 1.2.2-.6.2-1.8 0-2.5-.3-.6-.5-.1-.5 1.3zM4.7 307c-.8 1.1-1.8 1.7-2.2 1.2-.5-.4-.1.5.8 2 1.4 2.2 1.4 2.8.2 3.8-.8.6-1.9.9-2.4.6-1.5-1-.4 3.2 1.3 5 2.4 2.3 1.9 4-.4 1.9-1.7-1.6-2-1.6-1.5-.3.4.9 1.3 1.9 2.1 2.2.8.3 1.4 1 1.4 1.6 0 .8-.7.7-2.2 0-1.7-.8-1.5-.4.7 1.4 3.1 2.7 2.8 3.4-.6 1.6-1-.6-1.9-.8-1.9-.6 0 1.2 4 2.5 5.5 2 1.3-.5 1.4-.8.3-1.5-1.5-1-1.7-3.6-.5-6.3.5-1 .5-1.6 0-1.3-.4.3-1.6-.6-2.6-1.9-2.1-2.8-1.2-3.1 1.7-.7 2 1.7 2 1.7.6-.1-1.3-1.8-1.3-1.9.1-1.4.9.4 1.6.1 1.6-.7 0-.8-.7-1.1-1.6-.7-1.4.5-1.4.3-.3-1 .9-1.1 1-1.8.2-2.3-.5-.3-1-1.1-1-1.7 0-.7.6-.6 1.5.2s1.5.8 1.5.2c0-.6-.6-1.2-1.2-1.5-1-.3-1-.7.1-2 .7-1 1.1-1.7.8-1.7-.3 0-1.2.9-2 2zm690.3 1.7c.1 1.4 3 4.7 3.6 4.1.3-.4-.4-1.6-1.5-2.7-1.2-1.2-2.1-1.8-2.1-1.4z"/><path d="M0 309.6c0 1.3 1.8 3.9 2.4 3.4.2-.3-.2-1.4-1-2.4-.8-1.1-1.4-1.6-1.4-1zm698 15.9c-.9 1.1-.8 1.9.4 3.7.9 1.2 1.6 1.7 1.6 1.1 0-.7-.5-1.5-1-1.8-.7-.4-.7-1.3 0-2.6 1.3-2.3.7-2.5-1-.4zm-3.5 4.5c-.3.6.1.7.9.4 1.8-.7 2.1-1.4.7-1.4-.6 0-1.3.4-1.6 1zM5.3 331.5c-.3.9-.3 1.8-.1 2.1.3.3.8-.4 1.1-1.6.6-2.3-.1-2.7-1-.5zm-3.2 1.1c0 1.1.3 1.4.6.6.3-.7.2-1.6-.1-1.9-.3-.4-.6.2-.5 1.3zm692.3 3.6-1.9 2.3 2.5-2c1.4-1.1 2.7-2.1 2.9-2.2.2-.2 0-.3-.6-.3-.5 0-1.8 1-2.9 2.2zM4 336.5c.7.8 1.7 1.5 2.2 1.5.5 0 .3-.7-.6-1.5-.8-.8-1.8-1.5-2.2-1.5-.3 0-.1.7.6 1.5zm-3.3 1.9c-.8 2 .2 2.6 3.2 2l2.6-.5-2.2 1.7c-1.3.9-2.3 2.3-2.3 3.1 0 .8-.5 1.1-1.2.7-.7-.4-.8-.3-.4.5.9 1.3 2.6.5 2.6-1.2 0-.7.9-1.8 2-2.5 2.7-1.7 1.5-3.5-1.8-2.7-2.2.5-2.4.4-1.3-.9.8-.9.9-1.6.3-1.6-.5 0-1.2.6-1.5 1.4zm694.8-.4c-.8 1.3.3 3 1.8 2.9.9 0 .9-.2 0-.6-.7-.2-1.3-.9-1.3-1.4 0-.4.7-.5 1.7-.2 1.1.4 1.4.3.9-.5-.9-1.5-2.3-1.5-3.1-.2zm-1.5 4c.8.5 2 1 2.5 1 .6 0 .3-.5-.5-1s-1.9-1-2.5-1c-.5 0-.3.5.5 1zm4.5.1c-.4.6-.4 1.3-.1 1.6.3.3.1 1.2-.6 2-.9 1.1-.7 1.8.8 3.1 1 .9 1.3 1 .6.2-1.3-1.6-1.6-3.4-.4-2.6.4.2.8-.9.7-2.5 0-3.2-.1-3.4-1-1.8zm-693.1 2c-.3.6-.2 1.5.3 2s.9.1.9-1.1c0-2.3-.2-2.4-1.2-.9zm688.6 2.5c0 .5.7 1.8 1.5 2.8.8 1.1 1.5 1.6 1.5 1 0-.5-.7-1.8-1.5-2.8-.8-1.1-1.5-1.6-1.5-1zm-1 3.3c0 .5.5 1.3 1 1.6.6.3 1 .2 1-.4 0-.5-.4-1.3-1-1.6-.5-.3-1-.2-1 .4zM.3 352.5c0 .7.6 1.1 1.4.8 1.6-.6 1.6-1 0-1.6-.8-.3-1.4.1-1.4.8zM697 352c-.8.5-1 1-.5 1 .6 0 1.7-.5 2.5-1s1.1-1 .5-1c-.5 0-1.7.5-2.5 1zm-3 1.9c0 .9 3 2.4 3.6 1.8.2-.1-.6-.8-1.6-1.5-1.1-.7-2-.8-2-.3zM3 355.1c0 .5-.4.7-1 .4-.6-.4-.7.1-.3 1.1.5 1.3.3 1.5-.7.9-.9-.6-1.1-.4-.5.5.6 1 1.1.9 2.2-.5 1.3-1.9 1.7-3.5.8-3.5-.3 0-.5.5-.5 1.1zm690 1.3c0 .2.7.7 1.6 1 .8.3 1.2.2.9-.4-.6-1-2.5-1.4-2.5-.6zM3.6 358.5c-.3.9-.6 2.2-.5 2.8 0 .7.5.1 1-1.2s.8-2.6.5-2.8c-.2-.2-.6.3-1 1.2zm693 .1c-.5 1.4-.4 1.5.9.4 1.7-1.4 1.9-2 .6-2-.5 0-1.2.7-1.5 1.6zm-3.1 1.4c.3.5.8 1 1.1 1 .2 0 .4-.5.4-1 0-.6-.5-1-1.1-1-.5 0-.7.4-.4 1zm1.5 2.1c-1.2.8-1.1.9.5.5 1.6-.5 2.1-.1 2.2 1.4.1 1.1-.3 1.9-.9 1.7-.6-.1-1.3.5-1.5 1.3-.4 1.2-.3 1.2.5.2.5-.8 1.3-1.3 1.8-1.3 1.2.1 1.1-4.2-.1-4.6-.6-.1-1.7.2-2.5.8zm-694.6 2c-.3.5.3.6 1.3.2 1.6-.6 1.6-.5.4 1-.9 1.1-1 1.7-.2 1.7.6 0 1.1-.5 1.1-1.1 0-.5.5-.7 1.2-.3.7.5.8.3.3-.6-.6-1-.4-1.2.9-.7.9.4 1.5.3 1.2-.2-.3-.5-1.7-.9-3.1-.9-1.4 0-2.8.4-3.1.9zm3.2 4.5c-.9 2.4-.2 2.6 1.2.4.7-1.1.8-2 .3-2s-1.2.7-1.5 1.6zm694.9-.6c-.3.5-.1 1 .4 1 .6 0 1.1-.5 1.1-1 0-.6-.2-1-.4-1-.3 0-.8.4-1.1 1zm-693 2.1c-.4.6-.5 1.2-.2 1.5.2.3.7-.2 1-1.1.7-1.7.1-2-.8-.4zM695 370c0 .5.5 1 1 1 .6 0 1-.5 1-1 0-.6-.4-1-1-1-.5 0-1 .4-1 1zm.5 3.1c-.4.6-.5 1.2-.2 1.5.2.3.7-.2 1-1.1.7-1.7.1-2-.8-.4zm2 1c-.4.6-.4 1.3-.1 1.6.3.4.6.1.6-.6s.5-.9 1.2-.5.8.3.4-.4c-.9-1.5-1.3-1.5-2.1-.1zM1.2 375.5c.3.3 1.6.8 2.8 1 1.2.2 2 .1 1.6-.2-.4-.4-1.6-.8-2.8-1-1.2-.2-1.9-.1-1.6.2zm-.4 2.2c.6.2.9 1 .6 1.5-.4.7-.2.8.5.4 1.3-.9.5-2.6-1.2-2.5-.9 0-.8.2.1.6zm695.6.4c-.5.8-.3.9.6.4 1-.6 1.2-.4.7.8-.3 1-.2 1.7.3 1.7 1.3 0 1.3-2.7.1-3.5-.5-.3-1.3 0-1.7.6zM3.7 379.3c-.3.8-.2 2 .3 2.6.5.9.8.4.8-1.3 0-2.9-.3-3.2-1.1-1.3zm-2.1 4.2c-.3.8-.1 1.5.4 1.5.6 0 1-.7 1-1.5s-.2-1.5-.4-1.5-.6.7-1 1.5zm693.4-.6c1.3 1 1.3 1.2 0 2.2-1.3.9-1.3 1 0 .6.8-.2 1.5-1 1.5-1.7s-.7-1.5-1.5-1.7c-1.3-.4-1.3-.3 0 .6zM2.8 387.2c-1 1-1.4 1.8-.9 1.8 1 0 3.6-2.9 3-3.4-.2-.1-1.2.6-2.1 1.6zm694.7-1.2c-.3.6.1.7.9.4 1.8-.7 2.1-1.4.7-1.4-.6 0-1.3.4-1.6 1zm-2 3c-.3.6.1.7.9.4 1.8-.7 2.1-1.4.7-1.4-.6 0-1.3.4-1.6 1zM0 390.9c0 .6.4 1.3 1 1.6.6.3.7-.1.4-.9-.7-1.8-1.4-2.1-1.4-.7zm3.4 1.7c-.1 1.3.3 2.4.9 2.4.6 0 .7-.3.4-.7-.4-.3-.2-1.2.3-1.8.7-.9.7-1.4-.2-1.8-.8-.3-1.4.5-1.4 1.9zm694 1.9c-.4.8-1 1.3-1.4 1-.5-.3-1.1-.1-1.4.4-.4.5.1.8 1 .7 1.5-.2 4.2-3.6 2.9-3.6-.3 0-.8.7-1.1 1.5zM3.5 397c-.3.5-.1 1 .4 1 .6 0 1.1-.5 1.1-1 0-.6-.2-1-.4-1-.3 0-.8.4-1.1 1zm693.8 1.5c-.3.9-.3 1.8-.1 2.1.3.3.8-.4 1.1-1.6.6-2.3-.1-2.7-1-.5zm-3.3 0c0 .5.5 1.7 1 2.5s1 1 1 .5c0-.6-.5-1.7-1-2.5s-1-1.1-1-.5zm2 6.6c-.7 1.1-1 2.3-.7 2.5.2.2.9-.7 1.5-2.1 1.4-3 .7-3.3-.8-.4zM.5 412c-.3.6.1.7.9.4 1.8-.7 2.1-1.4.7-1.4-.6 0-1.3.4-1.6 1zm694.5 1c-.8.5-1 1-.5 1 .6 0 1.7-.5 2.5-1s1.1-1 .5-1c-.5 0-1.7.5-2.5 1zM5 414.1c0 .5.5.7 1 .4.6-.3 1-.8 1-1.1 0-.2-.4-.4-1-.4-.5 0-1 .5-1 1.1zm-2 1.8c0 .6.4 1.3 1 1.6.6.3.7-.1.4-.9-.7-1.8-1.4-2.1-1.4-.7zM1 419c-.9.6-1 1-.3 1 .6 0 1.5-.5 1.8-1 .8-1.2.4-1.2-1.5 0zm694.3 2.3c-.1 1.1-.1 1.8 0 1.6.2-.2.8-1.1 1.5-2 .9-1.2.9-1.6-.1-1.6-.7 0-1.4.9-1.4 2zM3.5 423c-.3.6.1.7.9.4 1.8-.7 2.1-1.4.7-1.4-.6 0-1.3.4-1.6 1zm694-.1c.3.5 0 1.1-.7 1.3-.7.3-.5.7.6 1.1.9.4 1.5.3 1.1-.2-.3-.5 0-1.1.7-1.3.7-.3.5-.7-.6-1.1-.9-.4-1.5-.3-1.1.2zM2.7 427.1c.6 2.3.9 2.4 1.6.5.3-.8 0-1.7-.7-1.9-1-.4-1.2.1-.9 1.4zm-2.3 5c-.3.6-.1 1.6.5 2.2.9.9 1 .7.5-.7-.6-1.5-.4-1.7.6-1.1.9.5 1.1.4.6-.3-.9-1.5-1.3-1.5-2.2-.1zm694.2-.3c-.2.4.7.8 2 .8 1.3.1 2.4-.1 2.4-.5 0-.9-3.8-1.2-4.4-.3zM4 434c-1.2.7-1 .9.7.7 1.2 0 1.9-.5 1.7-.9-.6-1-.6-1-2.4.2zm-.4 3.3c.3 1 .9 1.5 1.2 1.2.3-.3 0-1.1-.7-1.8-1-.9-1.1-.8-.5.6zm694.4 1.6c0 .7-.5.9-1.2.5-.7-.5-.8-.3-.3.5.5.9 1 1 1.8.2.6-.6.8-1.4.4-1.8-.4-.3-.7-.1-.7.6zM2.1 440.6c0 1.1.3 1.4.6.6.3-.7.2-1.6-.1-1.9-.3-.4-.6.2-.5 1.3zm692 0c0 1.1.3 1.4.6.6.3-.7.2-1.6-.1-1.9-.3-.4-.6.2-.5 1.3zm3.3 3.5c0 1.3.3 1.5 1.3.7.7-.6 1.3-1.2 1.3-1.3 0-.2-.6-.5-1.3-.8-.7-.3-1.3.3-1.3 1.4zm-695.8.6c-.6 1.4-.5 1.5.5.6.7-.7 1-1.5.7-1.8-.3-.3-.9.2-1.2 1.2zm692.4 2.2c0 .6.4 1.3 1 1.6.6.3.7-.1.4-.9-.7-1.8-1.4-2.1-1.4-.7zM.4 448.2c-.3.4.5.5 1.7.3 3-.6 3.6-1.4.9-1.2-1.2.1-2.4.5-2.6.9zm696.9.3c0 .8.4 1.2.9.9.5-.3.6-1 .3-1.5-.9-1.3-1.2-1.1-1.2.6zM5.6 452.7c-.6 1.4-.5 1.5.5.6.7-.7 1-1.5.7-1.8-.3-.3-.9.2-1.2 1.2zm690.8 7.1c.4.3 1.4.7 2.2.8.9.1 1.3 0 1-.4-.4-.3-1.4-.7-2.2-.8-.9-.1-1.3 0-1 .4zM3.7 463.2c1.9 2.1 3.1 2.5 1.4.5-.6-.8-.9-1.6-.6-1.9.3-.2-.2-.5-1-.5-1.3 0-1.3.3.2 1.9zm-.4 5.5c0 1.1.7 2 1.4 2 1 0 1-.4.1-1.6-.7-.9-1.3-1.8-1.5-2-.1-.2-.1.5 0 1.6zM696 470c-.9.6-1 1-.3 1 .6 0 1.5-.5 1.8-1 .8-1.2.4-1.2-1.5 0zm-.8 5.5c.3.3 1.6.8 2.8 1 1.2.2 2 .1 1.6-.2-.4-.4-1.6-.8-2.8-1-1.2-.2-1.9-.1-1.6.2zm1.8 3.9c0 .2.7.7 1.6 1 .8.3 1.2.2.9-.4-.6-1-2.5-1.4-2.5-.6zM3 488c0 .5.5 1 1.1 1 .5 0 .7-.5.4-1-.3-.6-.8-1-1.1-1-.2 0-.4.4-.4 1zm.5 2.9c-.3.5-.2 1.2.3 1.5.5.3.9-.1.9-.9 0-1.7-.3-1.9-1.2-.6zm690 5.2c-.4.6-.5 1.2-.2 1.5.2.3.7-.2 1-1.1.7-1.7.1-2-.8-.4zm1 5.9c-.3.6.1.7.9.4 1.8-.7 2.1-1.4.7-1.4-.6 0-1.3.4-1.6 1zm1.4 2.2c-.5 1.8-.6 3.8-.1 3.4.7-.8 1.2-3.6.6-3.6-.2 0-.4.1-.5.2zm-.5 6.9c-.3.6-.2 1.5.3 2s.9.1.9-1.1c0-2.3-.2-2.4-1.2-.9zm-689.9 12c-.4.6-.5 1.2-.2 1.5.2.3.7-.2 1-1.1.7-1.7.1-2-.8-.4zm688 .9c-.3.5-.1 1 .4 1 .6 0 1.1-.5 1.1-1 0-.6-.2-1-.4-1-.3 0-.8.4-1.1 1zM3.6 533.8c-.3.5.1.9.9.9s1.2-.4.9-.9c-.3-.4-.7-.8-.9-.8-.2 0-.6.4-.9.8zm693.4.3c0 .5.5.7 1 .4.6-.3 1-.8 1-1.1 0-.2-.4-.4-1-.4-.5 0-1 .5-1 1.1zM1 538c0 .5.5 1 1.1 1 .5 0 .7-.5.4-1-.3-.6-.8-1-1.1-1-.2 0-.4.4-.4 1zm.5 4c.3.5.8 1 1.1 1 .2 0 .4-.5.4-1 0-.6-.5-1-1.1-1-.5 0-.7.4-.4 1zm696.4 5.2c-.5 1.8-.6 3.8-.1 3.4.7-.8 1.2-3.6.6-3.6-.2 0-.4.1-.5.2zM5.5 550c.3.5.8 1 1.1 1 .2 0 .4-.5.4-1 0-.6-.5-1-1.1-1-.5 0-.7.4-.4 1zm689.1 6.2c.3.5 1 .6 1.5.3 1.3-.9 1.1-1.2-.6-1.2-.8 0-1.2.4-.9.9zM3.5 558.1c-.3.4.2.6 1 .5 2.1-.3 2.8-1.3 1-1.3-.9 0-1.8.4-2 .8zm690.1 12.1c.3.5 1 .6 1.5.3 1.3-.9 1.1-1.2-.6-1.2-.8 0-1.2.4-.9.9zM7.5 573.1c-.4.6-.5 1.2-.2 1.5.2.3.7-.2 1-1.1.7-1.7.1-2-.8-.4z"/></svg>